<svg viewBox="0 0 138 138" fill="none" xmlns="http://www.w3.org/2000/svg">
<g filter="url(#filter0_dd_32_257)">
<rect x="19" y="8" width="100" height="100" rx="50" fill="#F8F8F8" shape-rendering="crispEdges"/>
<path d="M45.6667 34.6667H92.3334V81.3334H45.6667V34.6667Z" fill="white" fill-opacity="0.01"/>
<path d="M83.5835 65.7779H58.3057L53.4446 46.3335H88.4446L83.5835 65.7779Z" fill="#333333"/>
<path d="M48.5835 40.5H51.9863L53.4446 46.3333M53.4446 46.3333L58.3057 65.7778H83.5835L88.4446 46.3333H53.4446Z" stroke="#333333" stroke-width="2" stroke-linecap="round" stroke-linejoin="round"/>
<path d="M58.3061 75.5001C59.9169 75.5001 61.2227 74.1942 61.2227 72.5834C61.2227 70.9726 59.9169 69.6667 58.3061 69.6667C56.6952 69.6667 55.3894 70.9726 55.3894 72.5834C55.3894 74.1942 56.6952 75.5001 58.3061 75.5001Z" stroke="#333333" stroke-width="2" stroke-linecap="round" stroke-linejoin="round"/>
<path d="M83.5834 75.5001C85.1942 75.5001 86.5001 74.1942 86.5001 72.5834C86.5001 70.9726 85.1942 69.6667 83.5834 69.6667C81.9726 69.6667 80.6667 70.9726 80.6667 72.5834C80.6667 74.1942 81.9726 75.5001 83.5834 75.5001Z" stroke="#333333" stroke-width="2" stroke-linecap="round" stroke-linejoin="round"/>
<path d="M67.0557 56.0557H74.8334" stroke="#333333" stroke-width="2" stroke-linecap="round" stroke-linejoin="round"/>
<path d="M70.9446 59.9445V52.1667" stroke="#333333" stroke-width="2" stroke-linecap="round" stroke-linejoin="round"/>
</g>
<path d="M2.821 120.017C3.289 120.069 3.81333 120.108 4.394 120.134C4.98333 120.16 5.603 120.173 6.253 120.173C6.669 120.173 7.085 120.164 7.501 120.147C7.92567 120.13 8.32867 120.108 8.71 120.082C9.1 120.056 9.451 120.026 9.763 119.991V121.057C9.46833 121.083 9.126 121.109 8.736 121.135C8.346 121.161 7.93433 121.183 7.501 121.2C7.07633 121.209 6.66467 121.213 6.266 121.213C5.60733 121.213 4.99633 121.2 4.433 121.174C3.86967 121.148 3.33233 121.113 2.821 121.07V120.017ZM3.341 125.256C3.25433 125.507 3.18933 125.759 3.146 126.01C3.10267 126.253 3.081 126.491 3.081 126.725C3.081 127.228 3.33233 127.635 3.835 127.947C4.34633 128.25 5.122 128.402 6.162 128.402C6.76867 128.402 7.345 128.385 7.891 128.35C8.44567 128.307 8.95267 128.246 9.412 128.168C9.88 128.09 10.2787 127.999 10.608 127.895L10.621 129.013C10.309 129.091 9.92333 129.165 9.464 129.234C9.01333 129.312 8.51067 129.368 7.956 129.403C7.40133 129.446 6.812 129.468 6.188 129.468C5.31267 129.468 4.563 129.373 3.939 129.182C3.315 128.991 2.83833 128.71 2.509 128.337C2.17967 127.964 2.015 127.505 2.015 126.959C2.015 126.621 2.04533 126.3 2.106 125.997C2.16667 125.694 2.22733 125.412 2.288 125.152L3.341 125.256ZM10.127 118.561C10.2397 118.717 10.361 118.903 10.491 119.12C10.621 119.328 10.7467 119.545 10.868 119.77C10.998 119.987 11.1063 120.182 11.193 120.355L10.491 120.68C10.361 120.411 10.1963 120.104 9.997 119.757C9.79767 119.41 9.607 119.111 9.425 118.86L10.127 118.561ZM11.557 118.041C11.6783 118.206 11.8083 118.396 11.947 118.613C12.0857 118.83 12.22 119.046 12.35 119.263C12.48 119.471 12.584 119.657 12.662 119.822L11.947 120.134C11.8083 119.848 11.6393 119.54 11.44 119.211C11.2493 118.873 11.0587 118.583 10.868 118.34L11.557 118.041ZM20.904 119.211H27.755V119.952H20.904V119.211ZM20.605 122.318H28.041V123.059H20.605V122.318ZM20.553 127.141H28.093V127.882H20.553V127.141ZM21.242 120.732H27.547V121.447H21.242V120.732ZM22.477 118.093H23.348V122.617H22.477V118.093ZM25.285 118.093H26.169V122.617H25.285V118.093ZM23.868 122.63H24.726V127.375H23.868V122.63ZM26.416 123.813H27.313V129.026C27.313 129.269 27.2783 129.455 27.209 129.585C27.1483 129.715 27.0313 129.819 26.858 129.897C26.6847 129.966 26.442 130.005 26.13 130.014C25.8267 130.023 25.441 130.027 24.973 130.027C24.947 129.914 24.908 129.78 24.856 129.624C24.804 129.477 24.7477 129.347 24.687 129.234C25.0337 129.243 25.3457 129.247 25.623 129.247C25.909 129.247 26.091 129.247 26.169 129.247C26.2557 129.238 26.3163 129.217 26.351 129.182C26.3943 129.156 26.416 129.104 26.416 129.026V123.813ZM21.385 123.813H26.793V124.554H22.269V130.053H21.385V123.813ZM21.853 125.49H26.78V126.166H21.853V125.49ZM17.316 127.037L18.2 127.232C18.0527 127.769 17.849 128.289 17.589 128.792C17.329 129.286 17.0517 129.706 16.757 130.053C16.705 130.001 16.6313 129.94 16.536 129.871C16.4407 129.81 16.3453 129.745 16.25 129.676C16.1633 129.615 16.081 129.568 16.003 129.533C16.2977 129.221 16.5577 128.844 16.783 128.402C17.017 127.96 17.1947 127.505 17.316 127.037ZM18.954 127.349L19.695 127.024C19.903 127.336 20.111 127.683 20.319 128.064C20.527 128.437 20.6787 128.762 20.774 129.039L20.007 129.416C19.9377 129.234 19.8467 129.022 19.734 128.779C19.6213 128.536 19.4957 128.294 19.357 128.051C19.227 127.8 19.0927 127.566 18.954 127.349ZM17.537 121.811V123.488H19.487V121.811H17.537ZM17.537 124.255V125.958H19.487V124.255H17.537ZM17.537 119.38V121.044H19.487V119.38H17.537ZM16.679 118.574H20.358V126.764H16.679V118.574ZM34.164 118.873H37.843V119.861H34.164V118.873ZM37.349 118.873H38.337C38.337 119.254 38.3543 119.705 38.389 120.225C38.4237 120.745 38.4973 121.304 38.61 121.902C38.7227 122.491 38.896 123.107 39.13 123.748C39.364 124.389 39.6803 125.031 40.079 125.672C40.4777 126.305 40.976 126.92 41.574 127.518C42.1807 128.116 42.913 128.666 43.771 129.169C43.7017 129.23 43.6107 129.308 43.498 129.403C43.394 129.507 43.2943 129.611 43.199 129.715C43.1123 129.828 43.0387 129.923 42.978 130.001C42.1113 129.472 41.366 128.892 40.742 128.259C40.1267 127.618 39.611 126.95 39.195 126.257C38.7877 125.564 38.4583 124.87 38.207 124.177C37.9643 123.475 37.778 122.799 37.648 122.149C37.5267 121.49 37.4443 120.879 37.401 120.316C37.3663 119.753 37.349 119.272 37.349 118.873ZM36.972 121.421L38.077 121.616C37.765 122.933 37.3577 124.121 36.855 125.178C36.361 126.235 35.7587 127.167 35.048 127.973C34.346 128.77 33.514 129.451 32.552 130.014C32.5 129.945 32.4177 129.862 32.305 129.767C32.201 129.672 32.0883 129.572 31.967 129.468C31.8543 129.373 31.7547 129.295 31.668 129.234C33.1153 128.471 34.2637 127.44 35.113 126.14C35.9623 124.831 36.582 123.258 36.972 121.421ZM52.143 118.613C52.1257 118.691 52.1127 118.782 52.104 118.886C52.0953 118.981 52.0867 119.085 52.078 119.198C52.0693 119.311 52.0607 119.415 52.052 119.51C52.0433 119.709 52.0303 119.969 52.013 120.29C52.0043 120.611 51.9957 120.966 51.987 121.356C51.9783 121.737 51.9697 122.127 51.961 122.526C51.9523 122.916 51.948 123.28 51.948 123.618C51.948 123.956 51.948 124.329 51.948 124.736C51.9567 125.135 51.9653 125.533 51.974 125.932C51.9913 126.322 52 126.686 52 127.024C52.0087 127.353 52.013 127.618 52.013 127.817C52.013 128.216 51.9653 128.532 51.87 128.766C51.7747 129 51.6403 129.165 51.467 129.26C51.3023 129.364 51.103 129.416 50.869 129.416C50.6177 129.416 50.336 129.355 50.024 129.234C49.712 129.121 49.413 128.965 49.127 128.766C48.8497 128.567 48.62 128.337 48.438 128.077C48.256 127.817 48.165 127.544 48.165 127.258C48.165 126.868 48.3123 126.487 48.607 126.114C48.9103 125.741 49.3003 125.395 49.777 125.074C50.2623 124.753 50.7737 124.493 51.311 124.294C51.9003 124.06 52.5027 123.887 53.118 123.774C53.7333 123.653 54.2967 123.592 54.808 123.592C55.4407 123.592 55.9997 123.7 56.485 123.917C56.979 124.134 57.3647 124.437 57.642 124.827C57.928 125.208 58.071 125.659 58.071 126.179C58.071 126.699 57.9627 127.158 57.746 127.557C57.538 127.956 57.226 128.289 56.81 128.558C56.4027 128.827 55.9 129.035 55.302 129.182C55.016 129.243 54.73 129.282 54.444 129.299C54.1667 129.325 53.9153 129.347 53.69 129.364L53.326 128.311C53.5687 128.32 53.82 128.32 54.08 128.311C54.3487 128.302 54.6043 128.272 54.847 128.22C55.2283 128.151 55.5837 128.034 55.913 127.869C56.251 127.696 56.5197 127.47 56.719 127.193C56.927 126.916 57.031 126.582 57.031 126.192C57.031 125.819 56.9313 125.507 56.732 125.256C56.5327 125.005 56.264 124.814 55.926 124.684C55.588 124.554 55.211 124.489 54.795 124.489C54.223 124.489 53.664 124.55 53.118 124.671C52.572 124.792 52.0173 124.966 51.454 125.191C51.038 125.347 50.6567 125.542 50.31 125.776C49.9633 126.001 49.686 126.24 49.478 126.491C49.2787 126.742 49.179 126.981 49.179 127.206C49.179 127.353 49.2267 127.496 49.322 127.635C49.426 127.765 49.5517 127.882 49.699 127.986C49.8463 128.09 50.0023 128.172 50.167 128.233C50.3317 128.285 50.4747 128.311 50.596 128.311C50.7433 128.311 50.856 128.259 50.934 128.155C51.0207 128.051 51.064 127.891 51.064 127.674C51.064 127.423 51.0597 127.076 51.051 126.634C51.0423 126.183 51.0337 125.698 51.025 125.178C51.0163 124.649 51.012 124.147 51.012 123.67C51.012 123.297 51.012 122.899 51.012 122.474C51.0207 122.049 51.025 121.638 51.025 121.239C51.0337 120.84 51.038 120.489 51.038 120.186C51.0467 119.883 51.051 119.666 51.051 119.536C51.051 119.449 51.0467 119.35 51.038 119.237C51.038 119.116 51.0337 118.999 51.025 118.886C51.0163 118.773 51.0033 118.682 50.986 118.613H52.143ZM56.173 120.056C56.485 120.221 56.8317 120.42 57.213 120.654C57.5943 120.879 57.9583 121.109 58.305 121.343C58.6603 121.577 58.942 121.781 59.15 121.954L58.617 122.786C58.461 122.63 58.2617 122.465 58.019 122.292C57.7763 122.11 57.5163 121.932 57.239 121.759C56.9617 121.577 56.6887 121.408 56.42 121.252C56.1513 121.087 55.913 120.949 55.705 120.836L56.173 120.056ZM48.373 120.953C48.7283 120.996 49.0317 121.027 49.283 121.044C49.543 121.053 49.7943 121.057 50.037 121.057C50.3577 121.057 50.7173 121.04 51.116 121.005C51.5147 120.97 51.9263 120.927 52.351 120.875C52.7757 120.814 53.1873 120.745 53.586 120.667C53.9933 120.58 54.3573 120.489 54.678 120.394L54.704 121.408C54.366 121.486 53.989 121.564 53.573 121.642C53.157 121.711 52.7323 121.772 52.299 121.824C51.8743 121.876 51.467 121.919 51.077 121.954C50.687 121.989 50.349 122.006 50.063 122.006C49.6903 122.006 49.374 122.002 49.114 121.993C48.8627 121.984 48.6243 121.967 48.399 121.941L48.373 120.953ZM66.833 124.385H71.292V128.207H66.833V127.375H70.369V125.217H66.833V124.385ZM66.404 124.385H67.314V128.987H66.404V124.385ZM64.051 120.524H67.665V121.239H64.051V120.524ZM70.044 120.524H73.736V121.239H70.044V120.524ZM73.294 118.639H74.282V128.727C74.282 129.056 74.2387 129.303 74.152 129.468C74.0653 129.641 73.9137 129.771 73.697 129.858C73.4803 129.945 73.177 129.997 72.787 130.014C72.4057 130.031 71.929 130.04 71.357 130.04C71.3483 129.945 71.3223 129.836 71.279 129.715C71.2443 129.594 71.201 129.472 71.149 129.351C71.1057 129.23 71.058 129.126 71.006 129.039C71.3007 129.048 71.578 129.052 71.838 129.052C72.1067 129.052 72.3407 129.052 72.54 129.052C72.748 129.052 72.891 129.052 72.969 129.052C73.0903 129.043 73.1727 129.017 73.216 128.974C73.268 128.922 73.294 128.84 73.294 128.727V118.639ZM64.129 118.639H68.289V123.215H64.129V122.435H67.379V119.419H64.129V118.639ZM73.814 118.639V119.419H70.395V122.448H73.814V123.228H69.472V118.639H73.814ZM63.596 118.639H64.558V130.053H63.596V118.639ZM80.899 119.926C80.8817 120.03 80.8643 120.16 80.847 120.316C80.8383 120.472 80.8253 120.628 80.808 120.784C80.7993 120.94 80.795 121.074 80.795 121.187C80.7863 121.456 80.782 121.763 80.782 122.11C80.7907 122.448 80.7993 122.803 80.808 123.176C80.8253 123.54 80.8513 123.904 80.886 124.268C80.9553 124.987 81.0723 125.62 81.237 126.166C81.4017 126.703 81.601 127.124 81.835 127.427C82.0777 127.73 82.3507 127.882 82.654 127.882C82.8187 127.882 82.979 127.808 83.135 127.661C83.291 127.505 83.4383 127.301 83.577 127.05C83.7243 126.79 83.8543 126.504 83.967 126.192C84.0883 125.871 84.188 125.551 84.266 125.23L85.085 126.153C84.825 126.89 84.5607 127.475 84.292 127.908C84.032 128.333 83.7633 128.64 83.486 128.831C83.2173 129.022 82.9357 129.117 82.641 129.117C82.2337 129.117 81.8393 128.97 81.458 128.675C81.0767 128.372 80.7473 127.886 80.47 127.219C80.1927 126.543 79.9933 125.646 79.872 124.528C79.8287 124.147 79.794 123.735 79.768 123.293C79.7507 122.851 79.7377 122.431 79.729 122.032C79.729 121.633 79.729 121.308 79.729 121.057C79.729 120.91 79.7247 120.719 79.716 120.485C79.7073 120.251 79.6813 120.056 79.638 119.9L80.899 119.926ZM87.672 120.29C87.906 120.585 88.127 120.931 88.335 121.33C88.5517 121.72 88.7467 122.14 88.92 122.591C89.102 123.033 89.2623 123.492 89.401 123.969C89.5483 124.446 89.6653 124.922 89.752 125.399C89.8473 125.867 89.9167 126.318 89.96 126.751L88.92 127.18C88.868 126.591 88.777 125.993 88.647 125.386C88.517 124.771 88.3567 124.177 88.166 123.605C87.9753 123.024 87.7543 122.478 87.503 121.967C87.2517 121.456 86.97 121.014 86.658 120.641L87.672 120.29ZM96.824 122.331H103.389V123.202H96.824V122.331ZM96.59 128.636H103.558V129.507H96.59V128.636ZM96.148 124.84H104.104V130.053H103.116V125.724H97.11V130.053H96.148V124.84ZM100.074 119.068C99.7187 119.597 99.255 120.143 98.683 120.706C98.1197 121.269 97.4913 121.811 96.798 122.331C96.1133 122.851 95.3983 123.31 94.653 123.709C94.6097 123.64 94.5533 123.557 94.484 123.462C94.4147 123.367 94.341 123.271 94.263 123.176C94.185 123.081 94.1113 123.003 94.042 122.942C94.8047 122.552 95.537 122.088 96.239 121.551C96.9497 121.014 97.5867 120.446 98.15 119.848C98.722 119.25 99.177 118.669 99.515 118.106H100.516C100.863 118.591 101.257 119.064 101.699 119.523C102.15 119.982 102.626 120.416 103.129 120.823C103.64 121.23 104.16 121.603 104.689 121.941C105.226 122.27 105.751 122.548 106.262 122.773C106.149 122.894 106.037 123.033 105.924 123.189C105.811 123.345 105.707 123.497 105.612 123.644C105.101 123.367 104.585 123.055 104.065 122.708C103.545 122.361 103.038 121.989 102.544 121.59C102.05 121.183 101.591 120.767 101.166 120.342C100.741 119.909 100.377 119.484 100.074 119.068ZM116.064 128.064C116.619 127.986 117.143 127.86 117.637 127.687C118.14 127.514 118.586 127.284 118.976 126.998C119.366 126.712 119.674 126.361 119.899 125.945C120.124 125.529 120.233 125.044 120.224 124.489C120.224 124.238 120.172 123.978 120.068 123.709C119.973 123.44 119.821 123.189 119.613 122.955C119.414 122.721 119.154 122.535 118.833 122.396C118.512 122.249 118.14 122.175 117.715 122.175C116.883 122.175 116.094 122.383 115.349 122.799C114.604 123.206 113.915 123.739 113.282 124.398V123.254C114.071 122.509 114.859 121.984 115.648 121.681C116.445 121.378 117.186 121.226 117.871 121.226C118.469 121.226 119.024 121.36 119.535 121.629C120.055 121.889 120.475 122.266 120.796 122.76C121.117 123.254 121.277 123.839 121.277 124.515C121.277 125.165 121.164 125.746 120.939 126.257C120.714 126.76 120.389 127.193 119.964 127.557C119.548 127.921 119.05 128.229 118.469 128.48C117.897 128.723 117.256 128.909 116.545 129.039L116.064 128.064ZM113.139 121.798C113.035 121.815 112.875 121.837 112.658 121.863C112.45 121.889 112.207 121.924 111.93 121.967C111.661 122.002 111.388 122.036 111.111 122.071C110.834 122.106 110.574 122.145 110.331 122.188L110.227 121.109C110.366 121.118 110.5 121.122 110.63 121.122C110.769 121.113 110.916 121.105 111.072 121.096C111.254 121.087 111.475 121.07 111.735 121.044C112.004 121.009 112.281 120.975 112.567 120.94C112.853 120.897 113.122 120.853 113.373 120.81C113.633 120.758 113.837 120.706 113.984 120.654L114.374 121.109C114.296 121.213 114.209 121.343 114.114 121.499C114.019 121.646 113.923 121.798 113.828 121.954C113.733 122.11 113.65 122.249 113.581 122.37L113.178 124.138C113.031 124.372 112.849 124.649 112.632 124.97C112.415 125.291 112.186 125.629 111.943 125.984C111.709 126.331 111.471 126.677 111.228 127.024C110.985 127.362 110.764 127.674 110.565 127.96L109.915 127.063C110.071 126.864 110.262 126.617 110.487 126.322C110.712 126.027 110.946 125.715 111.189 125.386C111.44 125.048 111.683 124.714 111.917 124.385C112.151 124.056 112.359 123.752 112.541 123.475C112.732 123.198 112.875 122.977 112.97 122.812L113.022 122.149L113.139 121.798ZM113.009 119.64C113.009 119.493 113.005 119.337 112.996 119.172C112.996 119.007 112.983 118.843 112.957 118.678L114.179 118.717C114.144 118.89 114.101 119.163 114.049 119.536C114.006 119.9 113.958 120.333 113.906 120.836C113.854 121.339 113.802 121.867 113.75 122.422C113.707 122.977 113.672 123.527 113.646 124.073C113.62 124.61 113.607 125.109 113.607 125.568C113.607 125.958 113.607 126.322 113.607 126.66C113.607 126.989 113.611 127.319 113.62 127.648C113.629 127.969 113.642 128.32 113.659 128.701C113.668 128.814 113.676 128.944 113.685 129.091C113.694 129.238 113.707 129.373 113.724 129.494H112.593C112.61 129.407 112.619 129.282 112.619 129.117C112.628 128.961 112.632 128.831 112.632 128.727C112.641 128.311 112.645 127.943 112.645 127.622C112.645 127.301 112.645 126.972 112.645 126.634C112.654 126.287 112.662 125.876 112.671 125.399C112.671 125.208 112.68 124.948 112.697 124.619C112.714 124.281 112.736 123.913 112.762 123.514C112.788 123.107 112.814 122.695 112.84 122.279C112.866 121.863 112.892 121.473 112.918 121.109C112.944 120.736 112.966 120.42 112.983 120.16C113 119.9 113.009 119.727 113.009 119.64ZM134.42 118.977C134.411 119.046 134.403 119.137 134.394 119.25C134.385 119.363 134.377 119.48 134.368 119.601C134.368 119.714 134.364 119.818 134.355 119.913C134.355 120.182 134.351 120.459 134.342 120.745C134.342 121.031 134.338 121.308 134.329 121.577C134.329 121.837 134.325 122.08 134.316 122.305C134.307 122.634 134.294 122.998 134.277 123.397C134.268 123.787 134.251 124.16 134.225 124.515C134.208 124.87 134.173 125.161 134.121 125.386C134.06 125.672 133.952 125.867 133.796 125.971C133.649 126.075 133.423 126.127 133.12 126.127C132.964 126.127 132.773 126.118 132.548 126.101C132.323 126.075 132.106 126.049 131.898 126.023C131.69 125.997 131.525 125.971 131.404 125.945L131.43 125.048C131.655 125.1 131.889 125.143 132.132 125.178C132.383 125.204 132.583 125.217 132.73 125.217C132.895 125.217 133.012 125.195 133.081 125.152C133.159 125.109 133.207 125.013 133.224 124.866C133.259 124.693 133.285 124.467 133.302 124.19C133.319 123.904 133.332 123.596 133.341 123.267C133.358 122.929 133.371 122.608 133.38 122.305C133.38 122.062 133.38 121.807 133.38 121.538C133.38 121.261 133.38 120.988 133.38 120.719C133.38 120.442 133.38 120.186 133.38 119.952C133.38 119.857 133.376 119.748 133.367 119.627C133.367 119.506 133.363 119.389 133.354 119.276C133.345 119.155 133.332 119.055 133.315 118.977H134.42ZM129.272 119.38C129.255 119.536 129.242 119.701 129.233 119.874C129.224 120.047 129.22 120.234 129.22 120.433C129.22 120.71 129.216 121.066 129.207 121.499C129.207 121.924 129.203 122.379 129.194 122.864C129.194 123.341 129.194 123.809 129.194 124.268C129.194 124.727 129.194 125.139 129.194 125.503C129.194 125.867 129.198 126.14 129.207 126.322C129.224 126.669 129.246 126.963 129.272 127.206C129.307 127.449 129.393 127.644 129.532 127.791C129.671 127.938 129.896 128.047 130.208 128.116C130.52 128.185 130.958 128.22 131.521 128.22C131.989 128.22 132.466 128.207 132.951 128.181C133.436 128.146 133.891 128.107 134.316 128.064C134.749 128.012 135.105 127.96 135.382 127.908L135.343 129.013C135.057 129.039 134.702 129.069 134.277 129.104C133.852 129.139 133.406 129.165 132.938 129.182C132.47 129.208 132.015 129.221 131.573 129.221C130.819 129.221 130.221 129.173 129.779 129.078C129.337 128.983 129.008 128.831 128.791 128.623C128.574 128.406 128.427 128.12 128.349 127.765C128.28 127.41 128.236 126.976 128.219 126.465C128.219 126.283 128.215 126.027 128.206 125.698C128.206 125.36 128.206 124.983 128.206 124.567C128.206 124.142 128.206 123.713 128.206 123.28C128.206 122.847 128.206 122.435 128.206 122.045C128.215 121.655 128.219 121.321 128.219 121.044C128.219 120.767 128.219 120.58 128.219 120.485C128.219 120.286 128.21 120.104 128.193 119.939C128.184 119.766 128.167 119.579 128.141 119.38H129.272ZM125.385 122.5C125.593 122.5 125.81 122.491 126.035 122.474C126.269 122.457 126.503 122.439 126.737 122.422C127.023 122.396 127.43 122.357 127.959 122.305C128.488 122.253 129.086 122.197 129.753 122.136C130.429 122.075 131.127 122.015 131.846 121.954C132.565 121.885 133.263 121.824 133.939 121.772C134.624 121.711 135.235 121.668 135.772 121.642C135.937 121.625 136.106 121.612 136.279 121.603C136.461 121.594 136.63 121.586 136.786 121.577V122.591C136.717 122.582 136.621 122.582 136.5 122.591C136.387 122.591 136.262 122.591 136.123 122.591C135.993 122.591 135.872 122.591 135.759 122.591C135.412 122.6 134.992 122.621 134.498 122.656C134.004 122.682 133.467 122.721 132.886 122.773C132.314 122.816 131.729 122.868 131.131 122.929C130.533 122.981 129.957 123.037 129.402 123.098C128.847 123.159 128.345 123.215 127.894 123.267C127.452 123.31 127.092 123.349 126.815 123.384C126.685 123.401 126.538 123.423 126.373 123.449C126.217 123.466 126.061 123.488 125.905 123.514C125.749 123.531 125.615 123.549 125.502 123.566L125.385 122.5Z" fill="black"/>
<defs>
<filter id="filter0_dd_32_257" x="11" y="0" width="116" height="116" filterUnits="userSpaceOnUse" color-interpolation-filters="sRGB">
<feFlood flood-opacity="0" result="BackgroundImageFix"/>
<feColorMatrix in="SourceAlpha" type="matrix" values="0 0 0 0 0 0 0 0 0 0 0 0 0 0 0 0 0 0 127 0" result="hardAlpha"/>
<feOffset dx="-3" dy="-3"/>
<feGaussianBlur stdDeviation="2.5"/>
<feComposite in2="hardAlpha" operator="out"/>
<feColorMatrix type="matrix" values="0 0 0 0 1 0 0 0 0 1 0 0 0 0 1 0 0 0 1 0"/>
<feBlend mode="normal" in2="BackgroundImageFix" result="effect1_dropShadow_32_257"/>
<feColorMatrix in="SourceAlpha" type="matrix" values="0 0 0 0 0 0 0 0 0 0 0 0 0 0 0 0 0 0 127 0" result="hardAlpha"/>
<feOffset dx="3" dy="3"/>
<feGaussianBlur stdDeviation="2.5"/>
<feComposite in2="hardAlpha" operator="out"/>
<feColorMatrix type="matrix" values="0 0 0 0 0.890196 0 0 0 0 0.898039 0 0 0 0 0.917647 0 0 0 1 0"/>
<feBlend mode="normal" in2="effect1_dropShadow_32_257" result="effect2_dropShadow_32_257"/>
<feBlend mode="normal" in="SourceGraphic" in2="effect2_dropShadow_32_257" result="shape"/>
</filter>
</defs>
</svg>
