<svg viewBox="0 0 138 138" fill="none" xmlns="http://www.w3.org/2000/svg">
<g filter="url(#filter0_dd_32_269)">
<rect x="8" y="8" width="100" height="100" rx="50" fill="#F8F8F8" shape-rendering="crispEdges"/>
<path d="M67.7503 72.9497C67.7503 72.9497 66.4662 71.4164 65.3958 70.0615C70.0692 68.7422 71.8528 65.8187 71.8528 65.8187C70.3901 66.7815 68.9989 67.459 67.7503 67.9221C65.9667 68.6711 64.2543 69.17 62.5778 69.4554C59.153 70.0971 56.0138 69.919 53.3384 69.4198C51.3048 69.0274 49.5568 68.4571 48.0944 67.8868C47.2738 67.5658 46.382 67.1736 45.4899 66.6745C45.3831 66.6031 45.2761 66.5675 45.169 66.4961C45.0978 66.4605 45.0619 66.4249 45.0263 66.3893C44.3842 66.0327 44.0275 65.7832 44.0275 65.7832C44.0275 65.7832 45.7399 68.6355 50.2703 69.9901C49.2003 71.3452 47.8802 72.9495 47.8802 72.9495C39.9962 72.6999 36.9999 67.5302 36.9999 67.5302C36.9999 56.0497 42.1368 46.7439 42.1368 46.7439C47.2738 42.8933 52.161 43.0003 52.161 43.0003L52.5178 43.4283C46.0966 45.2818 43.1357 48.0988 43.1357 48.0988C43.1357 48.0988 43.9204 47.6711 45.2402 47.0649C49.0574 45.3891 52.0898 44.9257 53.3384 44.8187C53.5522 44.7829 53.7307 44.7473 53.9448 44.7473C56.3354 44.4361 58.7547 44.4122 61.1509 44.6762C64.5396 45.0683 68.1786 46.0666 71.8884 48.0988C71.8884 48.0988 69.0704 45.4249 63.0058 43.5709L63.5052 43.0005C63.5052 43.0005 68.3924 42.8933 73.5294 46.7442C73.5294 46.7442 78.6665 56.0497 78.6665 67.5302C78.6665 67.5302 75.6341 72.7001 67.7503 72.9497ZM51.1621 56.2993C49.1288 56.2993 47.5237 58.0819 47.5237 60.2566C47.5237 62.4317 49.1644 64.2143 51.1621 64.2143C53.1957 64.2143 54.8008 62.4317 54.8008 60.2566C54.8366 58.0819 53.1955 56.2993 51.1621 56.2993ZM64.1831 56.2993C62.1496 56.2993 60.5442 58.0819 60.5442 60.2566C60.5442 62.4317 62.1854 64.2143 64.1831 64.2143C66.2164 64.2143 67.8215 62.4317 67.8215 60.2566C67.8215 58.0819 66.2164 56.2993 64.1831 56.2993Z" fill="#333333"/>
</g>
<path d="M13.236 120.082C13.4527 120.108 13.691 120.13 13.951 120.147C14.211 120.156 14.445 120.16 14.653 120.16H21.062C21.218 120.16 21.3827 120.16 21.556 120.16C21.738 120.151 21.894 120.143 22.024 120.134C22.0153 120.281 22.0067 120.45 21.998 120.641C21.9893 120.823 21.985 120.992 21.985 121.148V127.856C21.985 128.09 21.9893 128.333 21.998 128.584C22.0153 128.835 22.0283 129.013 22.037 129.117H20.867C20.8757 129.013 20.88 128.857 20.88 128.649C20.8887 128.432 20.893 128.207 20.893 127.973V121.2H14.666C14.4233 121.2 14.159 121.204 13.873 121.213C13.5957 121.222 13.3833 121.23 13.236 121.239V120.082ZM13.067 127.258C13.2317 127.275 13.444 127.293 13.704 127.31C13.9727 127.327 14.2413 127.336 14.51 127.336H21.478V128.389H14.536C14.276 128.389 14.0073 128.393 13.73 128.402C13.4613 128.411 13.2403 128.424 13.067 128.441V127.258ZM31.631 119.159C31.969 119.202 32.3677 119.263 32.827 119.341C33.2863 119.419 33.7717 119.51 34.283 119.614C34.803 119.718 35.3187 119.831 35.83 119.952C36.35 120.073 36.8353 120.195 37.286 120.316C37.7367 120.437 38.1267 120.554 38.456 120.667L38.04 121.668C37.7193 121.555 37.338 121.438 36.896 121.317C36.454 121.187 35.9817 121.061 35.479 120.94C34.985 120.819 34.478 120.706 33.958 120.602C33.4467 120.489 32.957 120.394 32.489 120.316C32.0297 120.229 31.618 120.164 31.254 120.121L31.631 119.159ZM31.046 122.591C31.488 122.669 31.9993 122.764 32.58 122.877C33.1607 122.99 33.7587 123.12 34.374 123.267C34.998 123.406 35.5917 123.553 36.155 123.709C36.7183 123.856 37.1993 124.004 37.598 124.151L37.182 125.152C36.8093 125.005 36.3457 124.853 35.791 124.697C35.245 124.541 34.6643 124.389 34.049 124.242C33.4337 124.095 32.827 123.965 32.229 123.852C31.6397 123.731 31.1153 123.635 30.656 123.566L31.046 122.591ZM30.331 126.374C30.773 126.443 31.2627 126.534 31.8 126.647C32.346 126.751 32.9093 126.872 33.49 127.011C34.0707 127.141 34.6427 127.28 35.206 127.427C35.7693 127.574 36.298 127.726 36.792 127.882C37.286 128.029 37.7107 128.177 38.066 128.324L37.624 129.325C37.2773 129.178 36.857 129.026 36.363 128.87C35.869 128.705 35.336 128.549 34.764 128.402C34.2007 128.246 33.6243 128.103 33.035 127.973C32.4543 127.843 31.8953 127.726 31.358 127.622C30.8293 127.518 30.3527 127.431 29.928 127.362L30.331 126.374ZM54.381 122.812C54.3637 122.873 54.3463 122.942 54.329 123.02C54.3117 123.098 54.2987 123.163 54.29 123.215C54.2727 123.414 54.238 123.683 54.186 124.021C54.1427 124.359 54.0907 124.732 54.03 125.139C53.9693 125.546 53.9087 125.954 53.848 126.361C53.7873 126.76 53.731 127.128 53.679 127.466C53.6357 127.795 53.5967 128.051 53.562 128.233H52.457C52.4917 128.086 52.5307 127.86 52.574 127.557C52.626 127.245 52.6823 126.894 52.743 126.504C52.8123 126.114 52.873 125.724 52.925 125.334C52.977 124.935 53.0203 124.576 53.055 124.255C53.0983 123.926 53.1243 123.674 53.133 123.501C52.9683 123.501 52.7343 123.501 52.431 123.501C52.1277 123.501 51.794 123.501 51.43 123.501C51.0747 123.501 50.7237 123.501 50.377 123.501C50.0303 123.501 49.7313 123.501 49.48 123.501C49.2373 123.501 49.077 123.501 48.999 123.501C48.8083 123.501 48.6263 123.505 48.453 123.514C48.2883 123.523 48.1237 123.531 47.959 123.54V122.448C48.063 122.465 48.1713 122.478 48.284 122.487C48.4053 122.496 48.5267 122.504 48.648 122.513C48.7693 122.522 48.882 122.526 48.986 122.526C49.09 122.526 49.2677 122.526 49.519 122.526C49.7703 122.526 50.0563 122.526 50.377 122.526C50.7063 122.526 51.04 122.526 51.378 122.526C51.716 122.526 52.0237 122.526 52.301 122.526C52.587 122.526 52.7993 122.526 52.938 122.526C53.016 122.526 53.094 122.522 53.172 122.513C53.2587 122.504 53.341 122.496 53.419 122.487C53.497 122.47 53.5533 122.452 53.588 122.435L54.381 122.812ZM46.737 127.817C46.893 127.826 47.062 127.839 47.244 127.856C47.426 127.865 47.6167 127.869 47.816 127.869C47.9287 127.869 48.1627 127.869 48.518 127.869C48.882 127.869 49.311 127.869 49.805 127.869C50.299 127.869 50.8147 127.869 51.352 127.869C51.898 127.869 52.418 127.869 52.912 127.869C53.4147 127.869 53.8437 127.869 54.199 127.869C54.5543 127.869 54.7883 127.869 54.901 127.869C55.0397 127.869 55.2087 127.865 55.408 127.856C55.616 127.847 55.7893 127.839 55.928 127.83V128.883C55.85 128.874 55.7503 128.87 55.629 128.87C55.5077 128.87 55.3863 128.87 55.265 128.87C55.1437 128.861 55.0353 128.857 54.94 128.857C54.8187 128.857 54.576 128.857 54.212 128.857C53.848 128.857 53.4147 128.857 52.912 128.857C52.4093 128.857 51.885 128.857 51.339 128.857C50.793 128.857 50.273 128.857 49.779 128.857C49.285 128.857 48.8603 128.857 48.505 128.857C48.1497 128.857 47.92 128.857 47.816 128.857C47.6167 128.857 47.4347 128.861 47.27 128.87C47.1053 128.87 46.9277 128.879 46.737 128.896V127.817ZM64.014 120.537C64.222 120.554 64.4343 120.567 64.651 120.576C64.8677 120.585 65.0843 120.589 65.301 120.589C65.4397 120.589 65.6563 120.589 65.951 120.589C66.2457 120.589 66.5793 120.589 66.952 120.589C67.3333 120.589 67.7277 120.589 68.135 120.589C68.551 120.589 68.9453 120.589 69.318 120.589C69.6907 120.589 70.0113 120.589 70.28 120.589C70.5573 120.589 70.7523 120.589 70.865 120.589C71.099 120.589 71.3243 120.585 71.541 120.576C71.7663 120.567 71.97 120.554 72.152 120.537V121.707C71.97 121.69 71.762 121.681 71.528 121.681C71.3027 121.672 71.0817 121.668 70.865 121.668C70.761 121.668 70.566 121.668 70.28 121.668C70.0027 121.668 69.669 121.668 69.279 121.668C68.8977 121.668 68.4947 121.668 68.07 121.668C67.654 121.668 67.2553 121.668 66.874 121.668C66.4927 121.668 66.159 121.668 65.873 121.668C65.5957 121.668 65.405 121.668 65.301 121.668C65.0757 121.668 64.8547 121.672 64.638 121.681C64.4213 121.69 64.2133 121.698 64.014 121.707V120.537ZM62.896 126.972C63.1213 126.981 63.3467 126.994 63.572 127.011C63.7973 127.028 64.027 127.037 64.261 127.037C64.365 127.037 64.5687 127.037 64.872 127.037C65.184 127.037 65.5567 127.037 65.99 127.037C66.432 127.037 66.9043 127.037 67.407 127.037C67.9097 127.037 68.408 127.037 68.902 127.037C69.4047 127.037 69.8727 127.037 70.306 127.037C70.748 127.037 71.1207 127.037 71.424 127.037C71.736 127.037 71.944 127.037 72.048 127.037C72.2473 127.037 72.4467 127.033 72.646 127.024C72.8453 127.007 73.0403 126.989 73.231 126.972V128.22C73.0403 128.203 72.8367 128.19 72.62 128.181C72.412 128.164 72.2213 128.155 72.048 128.155C71.944 128.155 71.736 128.155 71.424 128.155C71.1207 128.155 70.748 128.155 70.306 128.155C69.8727 128.155 69.4047 128.155 68.902 128.155C68.408 128.155 67.9097 128.155 67.407 128.155C66.9043 128.155 66.432 128.155 65.99 128.155C65.5567 128.155 65.184 128.155 64.872 128.155C64.5687 128.155 64.365 128.155 64.261 128.155C64.027 128.155 63.793 128.164 63.559 128.181C63.3337 128.19 63.1127 128.203 62.896 128.22V126.972ZM81.395 119.38C81.577 119.397 81.7633 119.415 81.954 119.432C82.1533 119.449 82.357 119.458 82.565 119.458C82.721 119.458 82.9723 119.458 83.319 119.458C83.6743 119.458 84.0773 119.458 84.528 119.458C84.9787 119.458 85.4293 119.458 85.88 119.458C86.3307 119.458 86.7293 119.458 87.076 119.458C87.4313 119.458 87.6827 119.458 87.83 119.458C88.012 119.458 88.2113 119.454 88.428 119.445C88.6533 119.428 88.857 119.406 89.039 119.38V120.459C88.8483 120.442 88.6447 120.433 88.428 120.433C88.22 120.424 88.0207 120.42 87.83 120.42C87.6827 120.42 87.4357 120.42 87.089 120.42C86.7423 120.42 86.3437 120.42 85.893 120.42C85.4423 120.42 84.9917 120.42 84.541 120.42C84.0903 120.42 83.6873 120.42 83.332 120.42C82.9767 120.42 82.7253 120.42 82.578 120.42C82.37 120.42 82.162 120.424 81.954 120.433C81.746 120.433 81.5597 120.442 81.395 120.459V119.38ZM79.835 122.643C80.017 122.66 80.199 122.678 80.381 122.695C80.5717 122.704 80.7667 122.708 80.966 122.708C81.0787 122.708 81.2997 122.708 81.629 122.708C81.967 122.708 82.3743 122.708 82.851 122.708C83.3363 122.708 83.8563 122.708 84.411 122.708C84.9657 122.708 85.5203 122.708 86.075 122.708C86.6297 122.708 87.1453 122.708 87.622 122.708C88.0987 122.708 88.5017 122.708 88.831 122.708C89.169 122.708 89.3857 122.708 89.481 122.708C89.6197 122.708 89.7843 122.704 89.975 122.695C90.1657 122.686 90.339 122.669 90.495 122.643V123.722C90.3563 123.713 90.1917 123.709 90.001 123.709C89.819 123.7 89.6457 123.696 89.481 123.696C89.3857 123.696 89.169 123.696 88.831 123.696C88.5017 123.696 88.0987 123.696 87.622 123.696C87.1453 123.696 86.6297 123.696 86.075 123.696C85.5203 123.696 84.9657 123.696 84.411 123.696C83.8563 123.696 83.3363 123.696 82.851 123.696C82.3743 123.696 81.967 123.696 81.629 123.696C81.2997 123.696 81.0787 123.696 80.966 123.696C80.7753 123.696 80.5847 123.696 80.394 123.696C80.2033 123.696 80.017 123.705 79.835 123.722V122.643ZM85.958 123.176C85.958 123.991 85.8973 124.74 85.776 125.425C85.6633 126.101 85.464 126.708 85.178 127.245C85.022 127.54 84.8097 127.834 84.541 128.129C84.281 128.415 83.9863 128.688 83.657 128.948C83.3363 129.208 82.9897 129.433 82.617 129.624L81.655 128.909C82.1577 128.701 82.63 128.419 83.072 128.064C83.514 127.709 83.8607 127.327 84.112 126.92C84.4413 126.4 84.6493 125.828 84.736 125.204C84.8227 124.571 84.866 123.895 84.866 123.176H85.958ZM96.3116 125.646C96.8836 125.507 97.4599 125.325 98.0406 125.1C98.6299 124.875 99.1803 124.636 99.6916 124.385C100.212 124.134 100.645 123.9 100.992 123.683C101.408 123.432 101.806 123.154 102.188 122.851C102.578 122.539 102.937 122.227 103.267 121.915C103.596 121.603 103.869 121.308 104.086 121.031L104.892 121.811C104.649 122.08 104.341 122.379 103.969 122.708C103.605 123.029 103.206 123.349 102.773 123.67C102.339 123.991 101.893 124.29 101.434 124.567C101.165 124.732 100.853 124.905 100.498 125.087C100.142 125.269 99.7653 125.451 99.3666 125.633C98.9679 125.815 98.5476 125.993 98.1056 126.166C97.6723 126.331 97.2389 126.478 96.8056 126.608L96.3116 125.646ZM100.875 124.268L101.954 124.008V128.87C101.954 129 101.954 129.139 101.954 129.286C101.962 129.442 101.971 129.585 101.98 129.715C101.988 129.845 102.001 129.945 102.019 130.014H100.823C100.831 129.945 100.84 129.845 100.849 129.715C100.857 129.585 100.862 129.442 100.862 129.286C100.87 129.139 100.875 129 100.875 128.87V124.268Z" fill="black"/>
<defs>
<filter id="filter0_dd_32_269" x="0" y="0" width="116" height="116" filterUnits="userSpaceOnUse" color-interpolation-filters="sRGB">
<feFlood flood-opacity="0" result="BackgroundImageFix"/>
<feColorMatrix in="SourceAlpha" type="matrix" values="0 0 0 0 0 0 0 0 0 0 0 0 0 0 0 0 0 0 127 0" result="hardAlpha"/>
<feOffset dx="-3" dy="-3"/>
<feGaussianBlur stdDeviation="2.5"/>
<feComposite in2="hardAlpha" operator="out"/>
<feColorMatrix type="matrix" values="0 0 0 0 1 0 0 0 0 1 0 0 0 0 1 0 0 0 1 0"/>
<feBlend mode="normal" in2="BackgroundImageFix" result="effect1_dropShadow_32_269"/>
<feColorMatrix in="SourceAlpha" type="matrix" values="0 0 0 0 0 0 0 0 0 0 0 0 0 0 0 0 0 0 127 0" result="hardAlpha"/>
<feOffset dx="3" dy="3"/>
<feGaussianBlur stdDeviation="2.5"/>
<feComposite in2="hardAlpha" operator="out"/>
<feColorMatrix type="matrix" values="0 0 0 0 0.890196 0 0 0 0 0.898039 0 0 0 0 0.917647 0 0 0 1 0"/>
<feBlend mode="normal" in2="effect1_dropShadow_32_269" result="effect2_dropShadow_32_269"/>
<feBlend mode="normal" in="SourceGraphic" in2="effect2_dropShadow_32_269" result="shape"/>
</filter>
</defs>
</svg>
