<svg width="189" height="197" viewBox="0 0 189 197" fill="none" xmlns="http://www.w3.org/2000/svg">
<g filter="url(#filter0_dd_39_431)">
<rect x="8" y="69" width="120" height="120" rx="60" fill="#F8F8F8" shape-rendering="crispEdges"/>
<path d="M94.9999 129L55.2701 146.321V111.679L94.9999 129Z" fill="#3E3E3E"/>
</g>
<path d="M39.16 57.6227L35.0008 47.5376L38.2558 46.1952C38.9715 45.9 39.6258 45.7915 40.2188 45.8696C40.8138 45.943 41.3296 46.1644 41.7661 46.5336C42.2059 46.9016 42.547 47.3793 42.7894 47.967C43.0317 48.5546 43.1289 49.1349 43.081 49.7078C43.0316 50.2775 42.8242 50.799 42.4586 51.2724C42.0917 51.7426 41.552 52.1246 40.8396 52.4184L38.279 53.4744L37.9378 52.6471L40.4738 51.6012C41.0024 51.3833 41.4 51.104 41.6668 50.7635C41.9322 50.4198 42.0791 50.0403 42.1077 49.6252C42.1395 49.2087 42.0647 48.7806 41.8833 48.3407C41.7019 47.9007 41.4531 47.5443 41.1369 47.2714C40.8241 46.9971 40.4514 46.8339 40.0189 46.7818C39.5896 46.7283 39.1075 46.8119 38.5724 47.0326L36.2628 47.9851L40.0809 57.2429L39.16 57.6227Z" fill="black"/>
<path d="M53.9916 52.2113L51.9655 41.492L52.9442 41.307L54.8042 51.147L59.9126 50.1814L60.0788 51.0607L53.9916 52.2113Z" fill="black"/>
<path d="M67.8811 50.0389L66.8374 50.0151L71.0537 39.1994L72.1188 39.2237L75.8371 50.2206L74.7934 50.1967L71.594 40.5065L71.5194 40.5048L67.8811 50.0389ZM68.7274 45.8757L74.138 45.9992L74.1175 46.8939L68.707 46.7703L68.7274 45.8757Z" fill="black"/>
<path d="M86.141 40.3234L87.2552 40.6106L89.094 46.4313L89.1868 46.4552L93.61 42.2484L94.7242 42.5356L89.3689 47.5418L88.1897 52.117L87.2303 51.8698L88.4095 47.2945L86.141 40.3234Z" fill="black"/>
<path d="M113.141 50.3014L114.081 50.9658L111.824 61.0095L111.903 61.0648L120.621 55.5921L121.561 56.2565L115.261 65.1628L114.496 64.6214L119.58 57.4329L119.511 57.3837L111.421 62.4467L110.682 61.9238L112.761 52.6097L112.692 52.5605L107.607 59.749L106.842 59.2077L113.141 50.3014Z" fill="black"/>
<path d="M132.821 75.4808C131.939 76.1974 131.044 76.6639 130.136 76.8805C129.23 77.0948 128.374 77.0718 127.568 76.8117C126.767 76.5522 126.076 76.0654 125.496 75.3516C124.916 74.6378 124.58 73.8608 124.488 73.0207C124.4 72.1812 124.554 71.34 124.949 70.4974C125.35 69.6552 125.991 68.8758 126.873 68.1593C127.755 67.4427 128.647 66.9759 129.551 66.7588C130.459 66.5423 131.315 66.5652 132.119 66.8276C132.925 67.0877 133.617 67.5732 134.194 68.2843C134.774 68.9981 135.108 69.7748 135.195 70.6144C135.288 71.4545 135.135 72.297 134.737 73.1419C134.342 73.9846 133.703 74.7642 132.821 75.4808ZM132.21 74.7284C132.968 74.1126 133.514 73.4584 133.848 72.766C134.185 72.0713 134.319 71.3884 134.249 70.7172C134.18 70.0461 133.919 69.4322 133.467 68.8755C133.017 68.3215 132.47 67.9419 131.828 67.7365C131.185 67.5312 130.489 67.5198 129.741 67.7024C128.995 67.8878 128.241 68.2895 127.481 68.9075C126.723 69.5234 126.177 70.1775 125.842 70.87C125.508 71.5624 125.375 72.2453 125.441 72.9187C125.511 73.5898 125.771 74.2037 126.224 74.7604C126.676 75.3172 127.224 75.6982 127.866 75.9035C128.511 76.1116 129.207 76.123 129.953 75.9376C130.702 75.75 131.454 75.347 132.21 74.7284Z" fill="black"/>
<path d="M142.819 80.7024L135.607 87.9178L135.649 88.0043L145.794 86.9433L146.244 87.8857L134.689 88.999L134.23 88.0373L142.369 79.76L142.819 80.7024Z" fill="black"/>
<path d="M150.477 99.9694L139.882 102.567L139.645 101.6L150.24 99.0019L150.477 99.9694Z" fill="black"/>
<path d="M141.852 111.43L152.722 110.506L153.258 116.812L152.367 116.888L151.915 111.575L147.823 111.922L148.246 116.901L147.354 116.977L146.931 111.998L142.828 112.347L143.289 117.766L142.397 117.842L141.852 111.43Z" fill="black"/>
<defs>
<filter id="filter0_dd_39_431" x="0" y="61" width="136" height="136" filterUnits="userSpaceOnUse" color-interpolation-filters="sRGB">
<feFlood flood-opacity="0" result="BackgroundImageFix"/>
<feColorMatrix in="SourceAlpha" type="matrix" values="0 0 0 0 0 0 0 0 0 0 0 0 0 0 0 0 0 0 127 0" result="hardAlpha"/>
<feOffset dx="-3" dy="-3"/>
<feGaussianBlur stdDeviation="2.5"/>
<feComposite in2="hardAlpha" operator="out"/>
<feColorMatrix type="matrix" values="0 0 0 0 1 0 0 0 0 1 0 0 0 0 1 0 0 0 1 0"/>
<feBlend mode="normal" in2="BackgroundImageFix" result="effect1_dropShadow_39_431"/>
<feColorMatrix in="SourceAlpha" type="matrix" values="0 0 0 0 0 0 0 0 0 0 0 0 0 0 0 0 0 0 127 0" result="hardAlpha"/>
<feOffset dx="3" dy="3"/>
<feGaussianBlur stdDeviation="2.5"/>
<feComposite in2="hardAlpha" operator="out"/>
<feColorMatrix type="matrix" values="0 0 0 0 0.890196 0 0 0 0 0.898039 0 0 0 0 0.917647 0 0 0 1 0"/>
<feBlend mode="normal" in2="effect1_dropShadow_39_431" result="effect2_dropShadow_39_431"/>
<feBlend mode="normal" in="SourceGraphic" in2="effect2_dropShadow_39_431" result="shape"/>
</filter>
</defs>
</svg>
