<svg width="131" height="80" viewBox="0 0 131 80" fill="none" xmlns="http://www.w3.org/2000/svg">
<g clip-path="url(#clip0_135_386)">
<path d="M135.438 80.3451H110.941V68.8618H73.0459V48.9097L85.199 4.0293H112.615L100.606 48.9097V51.4934H110.941V35.4647H135.438V80.3451Z" fill="#8ACABE"/>
<path d="M34.577 82.2109C32.6632 82.2109 30.9726 82.179 29.5053 82.1152C28.038 82.0833 26.3793 81.9876 24.5292 81.8282C22.711 81.7006 21.1161 81.5092 19.7445 81.254C18.3729 80.9988 16.9215 80.6479 15.3904 80.2014C13.8593 79.7229 12.5356 79.1647 11.4191 78.5267C10.3346 77.8888 9.25009 77.0913 8.16556 76.1344C7.11293 75.1774 6.26763 74.1089 5.62967 72.9286C4.99171 71.7484 4.4654 70.3609 4.05073 68.766C3.66795 67.1711 3.47656 65.4167 3.47656 63.5028V20.9191C3.47656 19.0052 3.66795 17.2508 4.05073 15.6559C4.4654 14.061 5.00766 12.6735 5.67752 11.4932C6.34738 10.2811 7.20862 9.19658 8.26125 8.23965C9.34578 7.28271 10.4303 6.48526 11.5148 5.8473C12.6313 5.20934 13.955 4.66708 15.4861 4.22051C17.0491 3.74204 18.5164 3.39116 19.888 3.16788C21.2597 2.91269 22.8546 2.70536 24.6727 2.54587C26.4909 2.38638 28.1177 2.29068 29.5531 2.25878C30.9885 2.22689 32.6472 2.21094 34.5292 2.21094C37.0172 2.21094 39.1863 2.25878 41.0364 2.35448C42.9183 2.41827 44.9917 2.60966 47.2565 2.92864C49.5212 3.21572 51.467 3.61445 53.0938 4.12481C54.7206 4.63518 56.3474 5.36883 57.9742 6.32577C59.6329 7.25081 60.9566 8.36724 61.9455 9.67505C62.9662 10.951 63.7955 12.5459 64.4335 14.4597C65.0715 16.3736 65.3904 18.5267 65.3904 20.9191V63.5028C65.3904 65.4805 65.1831 67.2827 64.7684 68.9095C64.3857 70.5363 63.8753 71.9557 63.2373 73.1679C62.5994 74.3481 61.7381 75.4167 60.6536 76.3736C59.601 77.3306 58.5483 78.128 57.4957 78.766C56.4431 79.372 55.1193 79.8983 53.5244 80.3449C51.9614 80.7915 50.526 81.1264 49.2182 81.3497C47.9104 81.6049 46.3155 81.7963 44.4335 81.9239C42.5515 82.0514 40.9247 82.1312 39.5531 82.1631C38.2134 82.195 36.5547 82.2109 34.577 82.2109ZM30.4622 69.1966H38.4048V15.321H30.4622V69.1966Z" fill="#8ACABE"/>
</g>
<defs>
<clipPath id="clip0_135_386">
<rect width="130.91" height="80" fill="white"/>
</clipPath>
</defs>
</svg>
