<svg width="480" height="103" viewBox="0 0 480 103" fill="none" xmlns="http://www.w3.org/2000/svg">
<path d="M81.3672 30.4531V77.9727C81.3672 80.5898 81.0938 82.9727 80.5469 85.1211C80.0391 87.2695 79.2383 89.125 78.1445 90.6875C77.0898 92.2109 75.8984 93.5586 74.5703 94.7305C73.2812 95.8633 71.6992 96.8008 69.8242 97.543C67.9492 98.2852 66.1133 98.9102 64.3164 99.418C62.5586 99.8867 60.4688 100.238 58.0469 100.473C55.6641 100.668 53.4961 100.805 51.543 100.883C49.5898 100.961 47.3047 101 44.6875 101H0.390625V7.54297H44.6875C47.6562 7.54297 50.293 7.60156 52.5977 7.71875C54.9023 7.83594 57.3828 8.08984 60.0391 8.48047C62.6953 8.83203 65 9.33984 66.9531 10.0039C68.9062 10.668 70.8203 11.5859 72.6953 12.7578C74.6094 13.8906 76.1523 15.2578 77.3242 16.8594C78.5352 18.4219 79.5117 20.3555 80.2539 22.6602C80.9961 24.9648 81.3672 27.5625 81.3672 30.4531ZM35.8398 87.2305H45.9766V21.4297H35.8398V87.2305ZM123.906 55.4727H133.75V36.2539H123.906V55.4727ZM167.148 72.6992C167.461 75.082 167.617 77.0938 167.617 78.7344C167.617 87.4844 164.492 93.6758 158.242 97.3086C152.031 100.941 142.246 102.758 128.887 102.758C126.582 102.758 124.57 102.738 122.852 102.699C121.133 102.66 119.141 102.543 116.875 102.348C114.609 102.191 112.637 101.957 110.957 101.645C109.277 101.371 107.461 100.961 105.508 100.414C103.594 99.8672 101.934 99.2227 100.527 98.4805C99.1602 97.6992 97.793 96.7422 96.4258 95.6094C95.0977 94.4766 94.0039 93.207 93.1445 91.8008C92.3242 90.3555 91.6602 88.6562 91.1523 86.7031C90.6445 84.75 90.3906 82.6211 90.3906 80.3164V45.1602C90.3906 42.3086 90.8203 39.75 91.6797 37.4844C92.5391 35.1797 93.6328 33.2852 94.9609 31.8008C96.3281 30.2773 98.0859 28.9688 100.234 27.875C102.422 26.7812 104.531 25.9414 106.562 25.3555C108.633 24.7695 111.074 24.3203 113.887 24.0078C116.699 23.6562 119.16 23.4414 121.27 23.3633C123.418 23.2852 125.918 23.2461 128.77 23.2461C130.996 23.2461 132.949 23.2656 134.629 23.3047C136.309 23.3438 138.262 23.4414 140.488 23.5977C142.754 23.7539 144.707 23.9883 146.348 24.3008C148.027 24.5742 149.844 24.9844 151.797 25.5312C153.75 26.0391 155.43 26.6641 156.836 27.4062C158.242 28.1484 159.629 29.0859 160.996 30.2188C162.363 31.3125 163.457 32.5625 164.277 33.9688C165.137 35.3359 165.82 36.9766 166.328 38.8906C166.875 40.7656 167.148 42.8359 167.148 45.1016V65.6094H123.906V89.3398H133.691V72.6992H167.148ZM224.102 101.41C224.102 101.41 223.984 101.43 223.75 101.469C223.516 101.508 223.184 101.547 222.754 101.586C222.324 101.664 221.816 101.742 221.23 101.82C220.684 101.898 220.039 101.977 219.297 102.055C218.555 102.133 217.793 102.191 217.012 102.23C216.23 102.309 215.371 102.367 214.434 102.406C213.535 102.445 212.637 102.465 211.738 102.465C207.52 102.465 203.906 102.348 200.898 102.113C197.93 101.879 195.137 101.449 192.52 100.824C189.941 100.199 187.832 99.3594 186.191 98.3047C184.551 97.25 183.145 95.8828 181.973 94.2031C180.801 92.5234 179.961 90.5312 179.453 88.2266C178.945 85.8828 178.691 83.1289 178.691 79.9648V36.5469H170.664V24.8281H178.691V7.54297H212.148V24.8281H221.465V36.5469H212.148V81.7812C212.148 82.9922 212.461 84.0273 213.086 84.8867C213.711 85.707 214.609 86.332 215.781 86.7617C216.953 87.1914 218.184 87.5039 219.473 87.6992C220.801 87.8555 222.344 87.9336 224.102 87.9336V101.41ZM262.949 62.7383V89.2812H272.676V62.7383H262.949ZM306.074 85.9414C306.113 90.9414 306.68 95.9414 307.773 100.941H277.305L274.023 92.8555C272.148 95.9414 269.512 98.3633 266.113 100.121C262.754 101.879 258.75 102.758 254.102 102.758C245.781 102.758 239.59 100.746 235.527 96.7227C231.465 92.6602 229.434 86.5078 229.434 78.2656C229.434 69.4766 231.738 63.0312 236.348 58.9297C240.957 54.7891 247.871 52.7188 257.09 52.7188C262.598 52.7188 267.793 53.5195 272.676 55.1211V36.1953H264.531V47.3867L233.77 48.5586C233.34 46.0586 233.125 43.9102 233.125 42.1133C233.125 39.6914 233.535 37.5039 234.355 35.5508C235.215 33.5977 236.309 31.9766 237.637 30.6875C239.004 29.3984 240.703 28.2852 242.734 27.3477C244.766 26.4102 246.758 25.6875 248.711 25.1797C250.664 24.6328 252.91 24.2227 255.449 23.9492C257.988 23.6367 260.215 23.4414 262.129 23.3633C264.043 23.2852 266.172 23.2461 268.516 23.2461C270.781 23.2461 272.793 23.2656 274.551 23.3047C276.309 23.3438 278.281 23.4609 280.469 23.6562C282.656 23.8125 284.59 24.0469 286.27 24.3594C287.949 24.6719 289.707 25.1016 291.543 25.6484C293.418 26.1953 295.02 26.8398 296.348 27.582C297.715 28.3242 299.023 29.2617 300.273 30.3945C301.562 31.4883 302.598 32.7383 303.379 34.1445C304.199 35.5508 304.844 37.1914 305.312 39.0664C305.82 40.9414 306.074 42.9922 306.074 45.2188V85.9414ZM349.785 0.863281V17.5039H316.328V0.863281H349.785ZM349.785 101H316.328V24.8281H349.785V101ZM394.727 101H361.27V0.804688H394.727V101ZM446.055 74.8672H446.113C445.801 74.5156 444.941 74.2422 443.535 74.0469C442.793 73.9297 441.484 73.7539 439.609 73.5195C437.773 73.2852 436.328 73.1094 435.273 72.9922C434.258 72.8359 432.969 72.6406 431.406 72.4062C429.883 72.1328 428.477 71.8594 427.188 71.5859C425.898 71.3125 424.668 71.0195 423.496 70.707C420.605 69.9258 417.969 68.9102 415.586 67.6602C413.242 66.4102 411.074 64.8867 409.082 63.0898C407.129 61.293 405.605 59.1445 404.512 56.6445C403.418 54.1055 402.871 51.3125 402.871 48.2656C402.871 45.2578 403.223 42.543 403.926 40.1211C404.629 37.6992 405.586 35.6289 406.797 33.9102C408.008 32.1914 409.551 30.707 411.426 29.457C413.34 28.168 415.352 27.1328 417.461 26.3516C419.57 25.5703 422.012 24.9453 424.785 24.4766C427.559 24.0078 430.293 23.6953 432.988 23.5391C435.684 23.3438 438.711 23.2461 442.07 23.2461C444.805 23.2461 447.148 23.2852 449.102 23.3633C451.094 23.4414 453.418 23.6367 456.074 23.9492C458.73 24.2617 460.996 24.7109 462.871 25.2969C464.746 25.8437 466.68 26.6641 468.672 27.7578C470.664 28.8516 472.266 30.1406 473.477 31.625C474.688 33.1094 475.684 35.0039 476.465 37.3086C477.285 39.5742 477.695 42.1328 477.695 44.9844C477.695 47.6797 477.676 49.3203 477.637 49.9062L446.055 48.1484V38.7148H436.27V50.5508C436.621 50.9023 437.5 51.1953 438.906 51.4297C439.961 51.5859 442.031 51.8984 445.117 52.3672C448.203 52.7969 450.82 53.207 452.969 53.5977C455.117 53.9883 457.109 54.4375 458.945 54.9453C461.758 55.7266 464.316 56.7031 466.621 57.875C468.965 59.0078 471.133 60.4336 473.125 62.1523C475.117 63.832 476.68 65.9023 477.812 68.3633C478.945 70.7852 479.512 73.4609 479.512 76.3906C479.512 79.3594 479.219 82.0547 478.633 84.4766C478.086 86.8984 477.246 88.9883 476.113 90.7461C475.02 92.5039 473.77 94.0469 472.363 95.375C470.996 96.7031 469.316 97.7969 467.324 98.6562C465.332 99.5156 463.379 100.238 461.465 100.824C459.551 101.371 457.324 101.781 454.785 102.055C452.246 102.328 449.902 102.504 447.754 102.582C445.605 102.699 443.145 102.758 440.371 102.758C437.09 102.758 434.258 102.699 431.875 102.582C429.492 102.465 426.973 102.191 424.316 101.762C421.66 101.371 419.414 100.824 417.578 100.121C415.781 99.3789 414.004 98.3828 412.246 97.1328C410.488 95.8828 409.082 94.3984 408.027 92.6797C407.012 90.9219 406.191 88.793 405.566 86.293C404.941 83.793 404.629 80.9414 404.629 77.7383C404.629 76.8398 404.648 76.1562 404.688 75.6875L436.27 77.5625V87.3477H446.055V74.8672Z" fill="#F2F2F2"/>
</svg>
