<svg width="508" height="96" viewBox="0 0 508 96" fill="none" xmlns="http://www.w3.org/2000/svg">
<path d="M55.7617 0.542969V15.1328H35.7812V38.1016H54.4141V52.6914H35.7812V94H0.390625V0.542969H55.7617ZM95.5469 48.4727H105.391V29.2539H95.5469V48.4727ZM138.789 65.6992C139.102 68.082 139.258 70.0938 139.258 71.7344C139.258 80.4844 136.133 86.6758 129.883 90.3086C123.672 93.9414 113.887 95.7578 100.527 95.7578C98.2227 95.7578 96.2109 95.7383 94.4922 95.6992C92.7734 95.6602 90.7812 95.543 88.5156 95.3477C86.25 95.1914 84.2773 94.957 82.5977 94.6445C80.918 94.3711 79.1016 93.9609 77.1484 93.4141C75.2344 92.8672 73.5742 92.2227 72.168 91.4805C70.8008 90.6992 69.4336 89.7422 68.0664 88.6094C66.7383 87.4766 65.6445 86.207 64.7852 84.8008C63.9648 83.3555 63.3008 81.6562 62.793 79.7031C62.2852 77.75 62.0312 75.6211 62.0312 73.3164V38.1602C62.0312 35.3086 62.4609 32.75 63.3203 30.4844C64.1797 28.1797 65.2734 26.2852 66.6016 24.8008C67.9688 23.2773 69.7266 21.9688 71.875 20.875C74.0625 19.7812 76.1719 18.9414 78.2031 18.3555C80.2734 17.7695 82.7148 17.3203 85.5273 17.0078C88.3398 16.6562 90.8008 16.4414 92.9102 16.3633C95.0586 16.2852 97.5586 16.2461 100.41 16.2461C102.637 16.2461 104.59 16.2656 106.27 16.3047C107.949 16.3438 109.902 16.4414 112.129 16.5977C114.395 16.7539 116.348 16.9883 117.988 17.3008C119.668 17.5742 121.484 17.9844 123.438 18.5312C125.391 19.0391 127.07 19.6641 128.477 20.4062C129.883 21.1484 131.27 22.0859 132.637 23.2188C134.004 24.3125 135.098 25.5625 135.918 26.9688C136.777 28.3359 137.461 29.9766 137.969 31.8906C138.516 33.7656 138.789 35.8359 138.789 38.1016V58.6094H95.5469V82.3398H105.332V65.6992H138.789ZM179.043 55.7383V82.2812H188.77V55.7383H179.043ZM222.168 78.9414C222.207 83.9414 222.773 88.9414 223.867 93.9414H193.398L190.117 85.8555C188.242 88.9414 185.605 91.3633 182.207 93.1211C178.848 94.8789 174.844 95.7578 170.195 95.7578C161.875 95.7578 155.684 93.7461 151.621 89.7227C147.559 85.6602 145.527 79.5078 145.527 71.2656C145.527 62.4766 147.832 56.0312 152.441 51.9297C157.051 47.7891 163.965 45.7188 173.184 45.7188C178.691 45.7188 183.887 46.5195 188.77 48.1211V29.1953H180.625V40.3867L149.863 41.5586C149.434 39.0586 149.219 36.9102 149.219 35.1133C149.219 32.6914 149.629 30.5039 150.449 28.5508C151.309 26.5977 152.402 24.9766 153.73 23.6875C155.098 22.3984 156.797 21.2852 158.828 20.3477C160.859 19.4102 162.852 18.6875 164.805 18.1797C166.758 17.6328 169.004 17.2227 171.543 16.9492C174.082 16.6367 176.309 16.4414 178.223 16.3633C180.137 16.2852 182.266 16.2461 184.609 16.2461C186.875 16.2461 188.887 16.2656 190.645 16.3047C192.402 16.3438 194.375 16.4609 196.562 16.6562C198.75 16.8125 200.684 17.0469 202.363 17.3594C204.043 17.6719 205.801 18.1016 207.637 18.6484C209.512 19.1953 211.113 19.8398 212.441 20.582C213.809 21.3242 215.117 22.2617 216.367 23.3945C217.656 24.4883 218.691 25.7383 219.473 27.1445C220.293 28.5508 220.938 30.1914 221.406 32.0664C221.914 33.9414 222.168 35.9922 222.168 38.2188V78.9414ZM280.234 94.4102C280.234 94.4102 280.117 94.4297 279.883 94.4688C279.648 94.5078 279.316 94.5469 278.887 94.5859C278.457 94.6641 277.949 94.7422 277.363 94.8203C276.816 94.8984 276.172 94.9766 275.43 95.0547C274.688 95.1328 273.926 95.1914 273.145 95.2305C272.363 95.3086 271.504 95.3672 270.566 95.4062C269.668 95.4453 268.77 95.4648 267.871 95.4648C263.652 95.4648 260.039 95.3477 257.031 95.1133C254.062 94.8789 251.27 94.4492 248.652 93.8242C246.074 93.1992 243.965 92.3594 242.324 91.3047C240.684 90.25 239.277 88.8828 238.105 87.2031C236.934 85.5234 236.094 83.5312 235.586 81.2266C235.078 78.8828 234.824 76.1289 234.824 72.9648V29.5469H226.797V17.8281H234.824V0.542969H268.281V17.8281H277.598V29.5469H268.281V74.7812C268.281 75.9922 268.594 77.0273 269.219 77.8867C269.844 78.707 270.742 79.332 271.914 79.7617C273.086 80.1914 274.316 80.5039 275.605 80.6992C276.934 80.8555 278.477 80.9336 280.234 80.9336V94.4102ZM312.227 95.7578C304.219 95.7578 298.066 93.8633 293.77 90.0742C289.512 86.2461 287.383 80.5234 287.383 72.9062V17.8281H320.898V80.3477H330.625V17.8281H364.141V94H333.848L331.68 87.4375C330.117 89.9766 327.52 92.0078 323.887 93.5312C320.254 95.0156 316.367 95.7578 312.227 95.7578ZM375.625 94L375.684 17.8281H404.16L406.562 26.4414C407.852 23.3555 410.234 20.9141 413.711 19.1172C417.188 17.3203 421.23 16.3633 425.84 16.2461V38.3945L409.082 41.6758V94H375.625ZM463.75 48.4727H473.594V29.2539H463.75V48.4727ZM506.992 65.6992C507.305 68.082 507.461 70.0938 507.461 71.7344C507.461 80.4844 504.336 86.6758 498.086 90.3086C491.875 93.9414 482.09 95.7578 468.73 95.7578C466.426 95.7578 464.414 95.7383 462.695 95.6992C460.977 95.6602 458.984 95.543 456.719 95.3477C454.453 95.1914 452.48 94.957 450.801 94.6445C449.121 94.3711 447.305 93.9609 445.352 93.4141C443.438 92.8672 441.777 92.2227 440.371 91.4805C439.004 90.6992 437.637 89.7422 436.27 88.6094C434.941 87.4766 433.848 86.207 432.988 84.8008C432.168 83.3555 431.504 81.6562 430.996 79.7031C430.488 77.75 430.234 75.6211 430.234 73.3164V38.1602C430.234 35.3086 430.664 32.75 431.523 30.4844C432.383 28.1797 433.477 26.2852 434.805 24.8008C436.172 23.2773 437.93 21.9688 440.078 20.875C442.266 19.7812 444.375 18.9414 446.406 18.3555C448.477 17.7695 450.918 17.3203 453.73 17.0078C456.543 16.6562 459.004 16.4414 461.113 16.3633C463.262 16.2852 465.762 16.2461 468.613 16.2461C470.84 16.2461 472.793 16.2656 474.473 16.3047C476.152 16.3438 478.105 16.4414 480.332 16.5977C482.598 16.7539 484.551 16.9883 486.191 17.3008C487.871 17.5742 489.688 17.9844 491.641 18.5312C493.594 19.0391 495.273 19.6641 496.68 20.4062C498.086 21.1484 499.473 22.0859 500.84 23.2188C502.207 24.3125 503.301 25.5625 504.121 26.9688C504.98 28.3359 505.664 29.9766 506.172 31.8906C506.719 33.7656 506.992 35.8359 506.992 38.1016V58.6094H463.75V82.3398H473.535V65.6992H506.992Z" fill="#F2F2F2"/>
</svg>
