<svg width="108" height="66" viewBox="0 0 108 66" fill="none" xmlns="http://www.w3.org/2000/svg">
<path d="M25.8672 65.5234C24.3047 65.5234 22.9245 65.4974 21.7266 65.4453C20.5286 65.4193 19.1745 65.3411 17.6641 65.2109C16.1797 65.1068 14.8776 64.9505 13.7578 64.7422C12.638 64.5339 11.4531 64.2474 10.2031 63.8828C8.95312 63.4922 7.8724 63.0365 6.96094 62.5156C6.07552 61.9948 5.1901 61.3438 4.30469 60.5625C3.44531 59.7812 2.75521 58.9089 2.23438 57.9453C1.71354 56.9818 1.28385 55.849 0.945312 54.5469C0.632812 53.2448 0.476562 51.8125 0.476562 50.25V15.4844C0.476562 13.9219 0.632812 12.4896 0.945312 11.1875C1.28385 9.88542 1.72656 8.7526 2.27344 7.78906C2.82031 6.79948 3.52344 5.91406 4.38281 5.13281C5.26823 4.35156 6.15365 3.70052 7.03906 3.17969C7.95052 2.65885 9.03125 2.21615 10.2812 1.85156C11.5573 1.46094 12.7552 1.17448 13.875 0.992188C14.9948 0.783854 16.2969 0.614583 17.7812 0.484375C19.2656 0.354167 20.5938 0.276042 21.7656 0.25C22.9375 0.223958 24.2917 0.210938 25.8281 0.210938C27.8594 0.210938 29.6302 0.25 31.1406 0.328125C32.6771 0.380208 34.3698 0.536458 36.2188 0.796875C38.0677 1.03125 39.6562 1.35677 40.9844 1.77344C42.3125 2.1901 43.6406 2.78906 44.9688 3.57031C46.3229 4.32552 47.4036 5.23698 48.2109 6.30469C49.0443 7.34635 49.7214 8.64844 50.2422 10.2109C50.763 11.7734 51.0234 13.5312 51.0234 15.4844V50.25C51.0234 51.8646 50.8542 53.3359 50.5156 54.6641C50.2031 55.9922 49.7865 57.151 49.2656 58.1406C48.7448 59.1042 48.0417 59.9766 47.1562 60.7578C46.2969 61.5391 45.4375 62.1901 44.5781 62.7109C43.7188 63.2057 42.638 63.6354 41.3359 64C40.0599 64.3646 38.888 64.638 37.8203 64.8203C36.7526 65.0286 35.4505 65.1849 33.9141 65.2891C32.3776 65.3932 31.0495 65.4583 29.9297 65.4844C28.8359 65.5104 27.4818 65.5234 25.8672 65.5234ZM22.5078 54.8984H28.9922V10.9141H22.5078V54.8984ZM57.4688 22.4375C57.4167 21.2396 57.3906 20.4583 57.3906 20.0938C57.3906 16.9427 57.8073 14.1953 58.6406 11.8516C59.474 9.50781 60.5938 7.60677 62 6.14844C63.4323 4.66406 65.2292 3.47917 67.3906 2.59375C69.5781 1.68229 71.8698 1.05729 74.2656 0.71875C76.6615 0.380208 79.3958 0.210938 82.4688 0.210938C90.9323 0.210938 97.1562 1.73438 101.141 4.78125C105.125 7.82812 107.117 12.9193 107.117 20.0547C107.117 21.9036 106.896 23.6615 106.453 25.3281C106.01 26.9948 105.503 28.4271 104.93 29.625C104.383 30.8229 103.51 32.0469 102.312 33.2969C101.115 34.5208 100.125 35.4844 99.3438 36.1875C98.5625 36.8646 97.3385 37.6979 95.6719 38.6875C94.0052 39.651 92.8073 40.3151 92.0781 40.6797C91.375 41.0443 90.125 41.6562 88.3281 42.5156C88.25 42.5677 88.1719 42.6068 88.0938 42.6328C88.0417 42.6589 87.9896 42.6849 87.9375 42.7109C86.7135 43.3099 85.6458 43.8828 84.7344 44.4297C83.849 44.9505 82.9245 45.6146 81.9609 46.4219C81.0234 47.2031 80.2943 48.0885 79.7734 49.0781C79.2786 50.0677 79.0312 51.1224 79.0312 52.2422H104.305V63.9609H57.4688V56.1484C57.4688 53.1276 57.7943 50.3672 58.4453 47.8672C59.0964 45.3672 59.9557 43.2318 61.0234 41.4609C62.1172 39.6641 63.5234 37.9974 65.2422 36.4609C66.987 34.8984 68.7318 33.5833 70.4766 32.5156C72.2474 31.4479 74.3568 30.3542 76.8047 29.2344C77.7682 28.7656 78.4062 28.4531 78.7188 28.2969C79.0573 28.1146 79.6432 27.7891 80.4766 27.3203C81.3359 26.8516 81.9479 26.4609 82.3125 26.1484C82.6771 25.8099 83.1068 25.3932 83.6016 24.8984C84.1224 24.3776 84.474 23.8438 84.6562 23.2969C84.8646 22.75 84.9688 22.1771 84.9688 21.5781V10.9531H79.0312V22.4375H57.4688Z" fill="#8ACABE"/>
</svg>
