<svg width="89" height="66" viewBox="0 0 89 66" fill="none" xmlns="http://www.w3.org/2000/svg">
<path d="M25.8672 65.5234C24.3047 65.5234 22.9245 65.4974 21.7266 65.4453C20.5286 65.4193 19.1745 65.3411 17.6641 65.2109C16.1797 65.1068 14.8776 64.9505 13.7578 64.7422C12.638 64.5339 11.4531 64.2474 10.2031 63.8828C8.95312 63.4922 7.8724 63.0365 6.96094 62.5156C6.07552 61.9948 5.1901 61.3438 4.30469 60.5625C3.44531 59.7812 2.75521 58.9089 2.23438 57.9453C1.71354 56.9818 1.28385 55.849 0.945312 54.5469C0.632812 53.2448 0.476562 51.8125 0.476562 50.25V15.4844C0.476562 13.9219 0.632812 12.4896 0.945312 11.1875C1.28385 9.88542 1.72656 8.7526 2.27344 7.78906C2.82031 6.79948 3.52344 5.91406 4.38281 5.13281C5.26823 4.35156 6.15365 3.70052 7.03906 3.17969C7.95052 2.65885 9.03125 2.21615 10.2812 1.85156C11.5573 1.46094 12.7552 1.17448 13.875 0.992188C14.9948 0.783854 16.2969 0.614583 17.7812 0.484375C19.2656 0.354167 20.5938 0.276042 21.7656 0.25C22.9375 0.223958 24.2917 0.210938 25.8281 0.210938C27.8594 0.210938 29.6302 0.25 31.1406 0.328125C32.6771 0.380208 34.3698 0.536458 36.2188 0.796875C38.0677 1.03125 39.6562 1.35677 40.9844 1.77344C42.3125 2.1901 43.6406 2.78906 44.9688 3.57031C46.3229 4.32552 47.4036 5.23698 48.2109 6.30469C49.0443 7.34635 49.7214 8.64844 50.2422 10.2109C50.763 11.7734 51.0234 13.5312 51.0234 15.4844V50.25C51.0234 51.8646 50.8542 53.3359 50.5156 54.6641C50.2031 55.9922 49.7865 57.151 49.2656 58.1406C48.7448 59.1042 48.0417 59.9766 47.1562 60.7578C46.2969 61.5391 45.4375 62.1901 44.5781 62.7109C43.7188 63.2057 42.638 63.6354 41.3359 64C40.0599 64.3646 38.888 64.638 37.8203 64.8203C36.7526 65.0286 35.4505 65.1849 33.9141 65.2891C32.3776 65.3932 31.0495 65.4583 29.9297 65.4844C28.8359 65.5104 27.4818 65.5234 25.8672 65.5234ZM22.5078 54.8984H28.9922V10.9141H22.5078V54.8984ZM56.0234 4.97656C61.4401 4.97656 65.9583 3.88281 69.5781 1.69531H88.25V64H64.6562V13.5703H56.0234V4.97656Z" fill="#8ACABE"/>
</svg>
