<svg width="108" height="66" viewBox="0 0 108 66" fill="none" xmlns="http://www.w3.org/2000/svg">
<path d="M25.8672 65.5234C24.3047 65.5234 22.9245 65.4974 21.7266 65.4453C20.5286 65.4193 19.1745 65.3411 17.6641 65.2109C16.1797 65.1068 14.8776 64.9505 13.7578 64.7422C12.638 64.5339 11.4531 64.2474 10.2031 63.8828C8.95312 63.4922 7.8724 63.0365 6.96094 62.5156C6.07552 61.9948 5.1901 61.3438 4.30469 60.5625C3.44531 59.7812 2.75521 58.9089 2.23438 57.9453C1.71354 56.9818 1.28385 55.849 0.945312 54.5469C0.632812 53.2448 0.476562 51.8125 0.476562 50.25V15.4844C0.476562 13.9219 0.632812 12.4896 0.945312 11.1875C1.28385 9.88542 1.72656 8.7526 2.27344 7.78906C2.82031 6.79948 3.52344 5.91406 4.38281 5.13281C5.26823 4.35156 6.15365 3.70052 7.03906 3.17969C7.95052 2.65885 9.03125 2.21615 10.2812 1.85156C11.5573 1.46094 12.7552 1.17448 13.875 0.992188C14.9948 0.783854 16.2969 0.614583 17.7812 0.484375C19.2656 0.354167 20.5938 0.276042 21.7656 0.25C22.9375 0.223958 24.2917 0.210938 25.8281 0.210938C27.8594 0.210938 29.6302 0.25 31.1406 0.328125C32.6771 0.380208 34.3698 0.536458 36.2188 0.796875C38.0677 1.03125 39.6562 1.35677 40.9844 1.77344C42.3125 2.1901 43.6406 2.78906 44.9688 3.57031C46.3229 4.32552 47.4036 5.23698 48.2109 6.30469C49.0443 7.34635 49.7214 8.64844 50.2422 10.2109C50.763 11.7734 51.0234 13.5312 51.0234 15.4844V50.25C51.0234 51.8646 50.8542 53.3359 50.5156 54.6641C50.2031 55.9922 49.7865 57.151 49.2656 58.1406C48.7448 59.1042 48.0417 59.9766 47.1562 60.7578C46.2969 61.5391 45.4375 62.1901 44.5781 62.7109C43.7188 63.2057 42.638 63.6354 41.3359 64C40.0599 64.3646 38.888 64.638 37.8203 64.8203C36.7526 65.0286 35.4505 65.1849 33.9141 65.2891C32.3776 65.3932 31.0495 65.4583 29.9297 65.4844C28.8359 65.5104 27.4818 65.5234 25.8672 65.5234ZM22.5078 54.8984H28.9922V10.9141H22.5078V54.8984ZM82.3125 0.25C86.6615 0.25 90.3724 0.588542 93.4453 1.26562C96.5182 1.94271 99.1354 3.0625 101.297 4.625C103.484 6.1875 105.099 8.28385 106.141 10.9141C107.182 13.5182 107.703 16.7214 107.703 20.5234C107.703 23.3099 107.013 25.6667 105.633 27.5938C104.253 29.5208 102.326 30.9792 99.8516 31.9688C102.456 32.9323 104.422 34.4297 105.75 36.4609C107.104 38.4661 107.781 40.849 107.781 43.6094C107.781 47.0208 107.378 50.0026 106.57 52.5547C105.789 55.0807 104.695 57.1641 103.289 58.8047C101.909 60.4453 100.138 61.7734 97.9766 62.7891C95.8151 63.8047 93.4844 64.5078 90.9844 64.8984C88.4844 65.3151 85.6198 65.5234 82.3906 65.5234C73.7448 65.5234 67.3776 63.7526 63.2891 60.2109C59.2266 56.6432 57.1953 51.1745 57.1953 43.8047C57.1953 42.4505 57.2474 41.2005 57.3516 40.0547H78.9141V54.8203H85.6328V36.3828H75.5156V27.6328H85.6328V10.8359H78.9141V24H57.3516C57.2734 22.8542 57.2344 21.7604 57.2344 20.7188C57.2344 16.8906 57.7552 13.6615 58.7969 11.0312C59.8646 8.375 61.4792 6.26562 63.6406 4.70312C65.8021 3.11458 68.3932 1.98177 71.4141 1.30469C74.4349 0.601562 78.0677 0.25 82.3125 0.25Z" fill="#8ACABE"/>
</svg>
