<svg width="589" height="97" viewBox="0 0 589 97" fill="none" xmlns="http://www.w3.org/2000/svg">
<path d="M36.3711 80.2891H46.5078V0.601562H81.957V72.3203C81.957 75.3672 81.4883 78.1211 80.5508 80.582C79.6523 83.0039 78.4805 85.0352 77.0352 86.6758C75.5898 88.3164 73.7344 89.7422 71.4688 90.9531C69.2422 92.1641 67.0156 93.1016 64.7891 93.7656C62.5625 94.4297 59.9844 94.957 57.0547 95.3477C54.1641 95.7383 51.5469 95.9922 49.2031 96.1094C46.8594 96.2266 44.2422 96.2852 41.3516 96.2852C38.6562 96.2852 36.1953 96.2266 33.9688 96.1094C31.7422 96.0312 29.1836 95.7969 26.293 95.4062C23.4023 95.0156 20.8242 94.4883 18.5586 93.8242C16.332 93.1602 14.0664 92.2227 11.7617 91.0117C9.49609 89.8008 7.60156 88.375 6.07812 86.7344C4.59375 85.0938 3.36328 83.043 2.38672 80.582C1.44922 78.082 0.980469 75.3086 0.980469 72.2617V0.542969H36.3711V80.2891ZM133.344 67.8672H133.402C133.09 67.5156 132.23 67.2422 130.824 67.0469C130.082 66.9297 128.773 66.7539 126.898 66.5195C125.062 66.2852 123.617 66.1094 122.562 65.9922C121.547 65.8359 120.258 65.6406 118.695 65.4062C117.172 65.1328 115.766 64.8594 114.477 64.5859C113.188 64.3125 111.957 64.0195 110.785 63.707C107.895 62.9258 105.258 61.9102 102.875 60.6602C100.531 59.4102 98.3633 57.8867 96.3711 56.0898C94.418 54.293 92.8945 52.1445 91.8008 49.6445C90.707 47.1055 90.1602 44.3125 90.1602 41.2656C90.1602 38.2578 90.5117 35.543 91.2148 33.1211C91.918 30.6992 92.875 28.6289 94.0859 26.9102C95.2969 25.1914 96.8398 23.707 98.7148 22.457C100.629 21.168 102.641 20.1328 104.75 19.3516C106.859 18.5703 109.301 17.9453 112.074 17.4766C114.848 17.0078 117.582 16.6953 120.277 16.5391C122.973 16.3438 126 16.2461 129.359 16.2461C132.094 16.2461 134.438 16.2852 136.391 16.3633C138.383 16.4414 140.707 16.6367 143.363 16.9492C146.02 17.2617 148.285 17.7109 150.16 18.2969C152.035 18.8437 153.969 19.6641 155.961 20.7578C157.953 21.8516 159.555 23.1406 160.766 24.625C161.977 26.1094 162.973 28.0039 163.754 30.3086C164.574 32.5742 164.984 35.1328 164.984 37.9844C164.984 40.6797 164.965 42.3203 164.926 42.9062L133.344 41.1484V31.7148H123.559V43.5508C123.91 43.9023 124.789 44.1953 126.195 44.4297C127.25 44.5859 129.32 44.8984 132.406 45.3672C135.492 45.7969 138.109 46.207 140.258 46.5977C142.406 46.9883 144.398 47.4375 146.234 47.9453C149.047 48.7266 151.605 49.7031 153.91 50.875C156.254 52.0078 158.422 53.4336 160.414 55.1523C162.406 56.832 163.969 58.9023 165.102 61.3633C166.234 63.7852 166.801 66.4609 166.801 69.3906C166.801 72.3594 166.508 75.0547 165.922 77.4766C165.375 79.8984 164.535 81.9883 163.402 83.7461C162.309 85.5039 161.059 87.0469 159.652 88.375C158.285 89.7031 156.605 90.7969 154.613 91.6562C152.621 92.5156 150.668 93.2383 148.754 93.8242C146.84 94.3711 144.613 94.7812 142.074 95.0547C139.535 95.3281 137.191 95.5039 135.043 95.582C132.895 95.6992 130.434 95.7578 127.66 95.7578C124.379 95.7578 121.547 95.6992 119.164 95.582C116.781 95.4648 114.262 95.1914 111.605 94.7617C108.949 94.3711 106.703 93.8242 104.867 93.1211C103.07 92.3789 101.293 91.3828 99.5352 90.1328C97.7773 88.8828 96.3711 87.3984 95.3164 85.6797C94.3008 83.9219 93.4805 81.793 92.8555 79.293C92.2305 76.793 91.918 73.9414 91.918 70.7383C91.918 69.8398 91.9375 69.1562 91.9766 68.6875L123.559 70.5625V80.3477H133.344V67.8672ZM207.641 48.4727H217.484V29.2539H207.641V48.4727ZM250.883 65.6992C251.195 68.082 251.352 70.0938 251.352 71.7344C251.352 80.4844 248.227 86.6758 241.977 90.3086C235.766 93.9414 225.98 95.7578 212.621 95.7578C210.316 95.7578 208.305 95.7383 206.586 95.6992C204.867 95.6602 202.875 95.543 200.609 95.3477C198.344 95.1914 196.371 94.957 194.691 94.6445C193.012 94.3711 191.195 93.9609 189.242 93.4141C187.328 92.8672 185.668 92.2227 184.262 91.4805C182.895 90.6992 181.527 89.7422 180.16 88.6094C178.832 87.4766 177.738 86.207 176.879 84.8008C176.059 83.3555 175.395 81.6562 174.887 79.7031C174.379 77.75 174.125 75.6211 174.125 73.3164V38.1602C174.125 35.3086 174.555 32.75 175.414 30.4844C176.273 28.1797 177.367 26.2852 178.695 24.8008C180.062 23.2773 181.82 21.9688 183.969 20.875C186.156 19.7812 188.266 18.9414 190.297 18.3555C192.367 17.7695 194.809 17.3203 197.621 17.0078C200.434 16.6562 202.895 16.4414 205.004 16.3633C207.152 16.2852 209.652 16.2461 212.504 16.2461C214.73 16.2461 216.684 16.2656 218.363 16.3047C220.043 16.3438 221.996 16.4414 224.223 16.5977C226.488 16.7539 228.441 16.9883 230.082 17.3008C231.762 17.5742 233.578 17.9844 235.531 18.5312C237.484 19.0391 239.164 19.6641 240.57 20.4062C241.977 21.1484 243.363 22.0859 244.73 23.2188C246.098 24.3125 247.191 25.5625 248.012 26.9688C248.871 28.3359 249.555 29.9766 250.062 31.8906C250.609 33.7656 250.883 35.8359 250.883 38.1016V58.6094H207.641V82.3398H217.426V65.6992H250.883ZM335.844 62.418L335.902 73.375C335.902 75.6797 335.648 77.8086 335.141 79.7617C334.633 81.6758 333.969 83.3555 333.148 84.8008C332.328 86.207 331.234 87.4766 329.867 88.6094C328.539 89.7422 327.172 90.6992 325.766 91.4805C324.398 92.2227 322.738 92.8672 320.785 93.4141C318.871 93.9609 317.074 94.3711 315.395 94.6445C313.715 94.957 311.742 95.1914 309.477 95.3477C307.25 95.543 305.277 95.6602 303.559 95.6992C301.879 95.7383 299.887 95.7578 297.582 95.7578C294.613 95.7578 291.977 95.6992 289.672 95.582C287.406 95.5039 284.867 95.2891 282.055 94.9375C279.281 94.5859 276.859 94.0977 274.789 93.4727C272.719 92.8477 270.648 91.9688 268.578 90.8359C266.508 89.7031 264.809 88.3555 263.48 86.793C262.191 85.2305 261.137 83.2969 260.316 80.9922C259.496 78.6875 259.086 76.0898 259.086 73.1992V38.043C259.086 35.7773 259.34 33.707 259.848 31.832C260.395 29.918 261.098 28.2773 261.957 26.9102C262.816 25.5039 263.949 24.2539 265.355 23.1602C266.762 22.0664 268.168 21.1484 269.574 20.4062C270.98 19.6641 272.66 19.0391 274.613 18.5312C276.605 17.9844 278.441 17.5742 280.121 17.3008C281.84 16.9883 283.832 16.7539 286.098 16.5977C288.363 16.4414 290.336 16.3438 292.016 16.3047C293.695 16.2656 295.668 16.2461 297.934 16.2461C300.863 16.2461 303.168 16.2656 304.848 16.3047C306.527 16.3438 308.871 16.5 311.879 16.7734C314.926 17.0078 317.367 17.3789 319.203 17.8867C321.078 18.3555 323.188 19.0977 325.531 20.1133C327.875 21.0898 329.711 22.3008 331.039 23.7461C332.367 25.1523 333.5 26.9688 334.438 29.1953C335.375 31.3828 335.844 33.8828 335.844 36.6953V47.8867H302.387V29.2539H292.602V82.3398H302.387V62.418H335.844ZM376.449 55.7383V82.2812H386.176V55.7383H376.449ZM419.574 78.9414C419.613 83.9414 420.18 88.9414 421.273 93.9414H390.805L387.523 85.8555C385.648 88.9414 383.012 91.3633 379.613 93.1211C376.254 94.8789 372.25 95.7578 367.602 95.7578C359.281 95.7578 353.09 93.7461 349.027 89.7227C344.965 85.6602 342.934 79.5078 342.934 71.2656C342.934 62.4766 345.238 56.0312 349.848 51.9297C354.457 47.7891 361.371 45.7188 370.59 45.7188C376.098 45.7188 381.293 46.5195 386.176 48.1211V29.1953H378.031V40.3867L347.27 41.5586C346.84 39.0586 346.625 36.9102 346.625 35.1133C346.625 32.6914 347.035 30.5039 347.855 28.5508C348.715 26.5977 349.809 24.9766 351.137 23.6875C352.504 22.3984 354.203 21.2852 356.234 20.3477C358.266 19.4102 360.258 18.6875 362.211 18.1797C364.164 17.6328 366.41 17.2227 368.949 16.9492C371.488 16.6367 373.715 16.4414 375.629 16.3633C377.543 16.2852 379.672 16.2461 382.016 16.2461C384.281 16.2461 386.293 16.2656 388.051 16.3047C389.809 16.3438 391.781 16.4609 393.969 16.6562C396.156 16.8125 398.09 17.0469 399.77 17.3594C401.449 17.6719 403.207 18.1016 405.043 18.6484C406.918 19.1953 408.52 19.8398 409.848 20.582C411.215 21.3242 412.523 22.2617 413.773 23.3945C415.062 24.4883 416.098 25.7383 416.879 27.1445C417.699 28.5508 418.344 30.1914 418.812 32.0664C419.32 33.9414 419.574 35.9922 419.574 38.2188V78.9414ZM470.961 67.8672H471.02C470.707 67.5156 469.848 67.2422 468.441 67.0469C467.699 66.9297 466.391 66.7539 464.516 66.5195C462.68 66.2852 461.234 66.1094 460.18 65.9922C459.164 65.8359 457.875 65.6406 456.312 65.4062C454.789 65.1328 453.383 64.8594 452.094 64.5859C450.805 64.3125 449.574 64.0195 448.402 63.707C445.512 62.9258 442.875 61.9102 440.492 60.6602C438.148 59.4102 435.98 57.8867 433.988 56.0898C432.035 54.293 430.512 52.1445 429.418 49.6445C428.324 47.1055 427.777 44.3125 427.777 41.2656C427.777 38.2578 428.129 35.543 428.832 33.1211C429.535 30.6992 430.492 28.6289 431.703 26.9102C432.914 25.1914 434.457 23.707 436.332 22.457C438.246 21.168 440.258 20.1328 442.367 19.3516C444.477 18.5703 446.918 17.9453 449.691 17.4766C452.465 17.0078 455.199 16.6953 457.895 16.5391C460.59 16.3438 463.617 16.2461 466.977 16.2461C469.711 16.2461 472.055 16.2852 474.008 16.3633C476 16.4414 478.324 16.6367 480.98 16.9492C483.637 17.2617 485.902 17.7109 487.777 18.2969C489.652 18.8437 491.586 19.6641 493.578 20.7578C495.57 21.8516 497.172 23.1406 498.383 24.625C499.594 26.1094 500.59 28.0039 501.371 30.3086C502.191 32.5742 502.602 35.1328 502.602 37.9844C502.602 40.6797 502.582 42.3203 502.543 42.9062L470.961 41.1484V31.7148H461.176V43.5508C461.527 43.9023 462.406 44.1953 463.812 44.4297C464.867 44.5859 466.938 44.8984 470.023 45.3672C473.109 45.7969 475.727 46.207 477.875 46.5977C480.023 46.9883 482.016 47.4375 483.852 47.9453C486.664 48.7266 489.223 49.7031 491.527 50.875C493.871 52.0078 496.039 53.4336 498.031 55.1523C500.023 56.832 501.586 58.9023 502.719 61.3633C503.852 63.7852 504.418 66.4609 504.418 69.3906C504.418 72.3594 504.125 75.0547 503.539 77.4766C502.992 79.8984 502.152 81.9883 501.02 83.7461C499.926 85.5039 498.676 87.0469 497.27 88.375C495.902 89.7031 494.223 90.7969 492.23 91.6562C490.238 92.5156 488.285 93.2383 486.371 93.8242C484.457 94.3711 482.23 94.7812 479.691 95.0547C477.152 95.3281 474.809 95.5039 472.66 95.582C470.512 95.6992 468.051 95.7578 465.277 95.7578C461.996 95.7578 459.164 95.6992 456.781 95.582C454.398 95.4648 451.879 95.1914 449.223 94.7617C446.566 94.3711 444.32 93.8242 442.484 93.1211C440.688 92.3789 438.91 91.3828 437.152 90.1328C435.395 88.8828 433.988 87.3984 432.934 85.6797C431.918 83.9219 431.098 81.793 430.473 79.293C429.848 76.793 429.535 73.9414 429.535 70.7383C429.535 69.8398 429.555 69.1562 429.594 68.6875L461.176 70.5625V80.3477H470.961V67.8672ZM545.258 48.4727H555.102V29.2539H545.258V48.4727ZM588.5 65.6992C588.812 68.082 588.969 70.0938 588.969 71.7344C588.969 80.4844 585.844 86.6758 579.594 90.3086C573.383 93.9414 563.598 95.7578 550.238 95.7578C547.934 95.7578 545.922 95.7383 544.203 95.6992C542.484 95.6602 540.492 95.543 538.227 95.3477C535.961 95.1914 533.988 94.957 532.309 94.6445C530.629 94.3711 528.812 93.9609 526.859 93.4141C524.945 92.8672 523.285 92.2227 521.879 91.4805C520.512 90.6992 519.145 89.7422 517.777 88.6094C516.449 87.4766 515.355 86.207 514.496 84.8008C513.676 83.3555 513.012 81.6562 512.504 79.7031C511.996 77.75 511.742 75.6211 511.742 73.3164V38.1602C511.742 35.3086 512.172 32.75 513.031 30.4844C513.891 28.1797 514.984 26.2852 516.312 24.8008C517.68 23.2773 519.438 21.9688 521.586 20.875C523.773 19.7812 525.883 18.9414 527.914 18.3555C529.984 17.7695 532.426 17.3203 535.238 17.0078C538.051 16.6562 540.512 16.4414 542.621 16.3633C544.77 16.2852 547.27 16.2461 550.121 16.2461C552.348 16.2461 554.301 16.2656 555.98 16.3047C557.66 16.3438 559.613 16.4414 561.84 16.5977C564.105 16.7539 566.059 16.9883 567.699 17.3008C569.379 17.5742 571.195 17.9844 573.148 18.5312C575.102 19.0391 576.781 19.6641 578.188 20.4062C579.594 21.1484 580.98 22.0859 582.348 23.2188C583.715 24.3125 584.809 25.5625 585.629 26.9688C586.488 28.3359 587.172 29.9766 587.68 31.8906C588.227 33.7656 588.5 35.8359 588.5 38.1016V58.6094H545.258V82.3398H555.043V65.6992H588.5Z" fill="#F2F2F2"/>
</svg>
