<svg width="436" height="103" viewBox="0 0 436 103" fill="none" xmlns="http://www.w3.org/2000/svg">
<path d="M35.7227 64.2031H45.8594V21.1953H35.7227V64.2031ZM0.390625 7.54297H44.6289C47.5977 7.54297 50.2344 7.60156 52.5391 7.71875C54.8438 7.83594 57.3242 8.08984 59.9805 8.48047C62.6367 8.83203 64.9414 9.33984 66.8945 10.0039C68.8477 10.668 70.7617 11.5859 72.6367 12.7578C74.5508 13.8906 76.0938 15.2578 77.2656 16.8594C78.4766 18.4219 79.4531 20.3555 80.1953 22.6602C80.9375 24.9648 81.3086 27.5625 81.3086 30.4531V54.5352C81.3086 56.8789 81.0742 59.0273 80.6055 60.9805C80.1758 62.8945 79.5703 64.5938 78.7891 66.0781C78.0469 67.5234 77.0508 68.832 75.8008 70.0039C74.5898 71.1367 73.3398 72.0938 72.0508 72.875C70.7617 73.6562 69.2188 74.3398 67.4219 74.9258C65.625 75.5117 63.9062 75.9609 62.2656 76.2734C60.6641 76.5859 58.7695 76.8398 56.582 77.0352C54.4336 77.1914 52.4805 77.3086 50.7227 77.3867C49.0039 77.4258 46.9922 77.4453 44.6875 77.4453H35.7812V101H0.390625V7.54297ZM90.5078 101L90.5664 24.8281H119.043L121.445 33.4414C122.734 30.3555 125.117 27.9141 128.594 26.1172C132.07 24.3203 136.113 23.3633 140.723 23.2461V45.3945L123.965 48.6758V101H90.5078ZM180.918 0.863281V17.5039H147.461V0.863281H180.918ZM180.918 101H147.461V24.8281H180.918V101ZM267.344 69.418L267.402 80.375C267.402 82.6797 267.148 84.8086 266.641 86.7617C266.133 88.6758 265.469 90.3555 264.648 91.8008C263.828 93.207 262.734 94.4766 261.367 95.6094C260.039 96.7422 258.672 97.6992 257.266 98.4805C255.898 99.2227 254.238 99.8672 252.285 100.414C250.371 100.961 248.574 101.371 246.895 101.645C245.215 101.957 243.242 102.191 240.977 102.348C238.75 102.543 236.777 102.66 235.059 102.699C233.379 102.738 231.387 102.758 229.082 102.758C226.113 102.758 223.477 102.699 221.172 102.582C218.906 102.504 216.367 102.289 213.555 101.938C210.781 101.586 208.359 101.098 206.289 100.473C204.219 99.8477 202.148 98.9688 200.078 97.8359C198.008 96.7031 196.309 95.3555 194.98 93.793C193.691 92.2305 192.637 90.2969 191.816 87.9922C190.996 85.6875 190.586 83.0898 190.586 80.1992V45.043C190.586 42.7773 190.84 40.707 191.348 38.832C191.895 36.918 192.598 35.2773 193.457 33.9102C194.316 32.5039 195.449 31.2539 196.855 30.1602C198.262 29.0664 199.668 28.1484 201.074 27.4062C202.48 26.6641 204.16 26.0391 206.113 25.5312C208.105 24.9844 209.941 24.5742 211.621 24.3008C213.34 23.9883 215.332 23.7539 217.598 23.5977C219.863 23.4414 221.836 23.3438 223.516 23.3047C225.195 23.2656 227.168 23.2461 229.434 23.2461C232.363 23.2461 234.668 23.2656 236.348 23.3047C238.027 23.3438 240.371 23.5 243.379 23.7734C246.426 24.0078 248.867 24.3789 250.703 24.8867C252.578 25.3555 254.688 26.0977 257.031 27.1133C259.375 28.0898 261.211 29.3008 262.539 30.7461C263.867 32.1523 265 33.9688 265.938 36.1953C266.875 38.3828 267.344 40.8828 267.344 43.6953V54.8867H233.887V36.2539H224.102V89.3398H233.887V69.418H267.344ZM308.945 55.4727H318.789V36.2539H308.945V55.4727ZM352.188 72.6992C352.5 75.082 352.656 77.0938 352.656 78.7344C352.656 87.4844 349.531 93.6758 343.281 97.3086C337.07 100.941 327.285 102.758 313.926 102.758C311.621 102.758 309.609 102.738 307.891 102.699C306.172 102.66 304.18 102.543 301.914 102.348C299.648 102.191 297.676 101.957 295.996 101.645C294.316 101.371 292.5 100.961 290.547 100.414C288.633 99.8672 286.973 99.2227 285.566 98.4805C284.199 97.6992 282.832 96.7422 281.465 95.6094C280.137 94.4766 279.043 93.207 278.184 91.8008C277.363 90.3555 276.699 88.6562 276.191 86.7031C275.684 84.75 275.43 82.6211 275.43 80.3164V45.1602C275.43 42.3086 275.859 39.75 276.719 37.4844C277.578 35.1797 278.672 33.2852 280 31.8008C281.367 30.2773 283.125 28.9688 285.273 27.875C287.461 26.7812 289.57 25.9414 291.602 25.3555C293.672 24.7695 296.113 24.3203 298.926 24.0078C301.738 23.6562 304.199 23.4414 306.309 23.3633C308.457 23.2852 310.957 23.2461 313.809 23.2461C316.035 23.2461 317.988 23.2656 319.668 23.3047C321.348 23.3438 323.301 23.4414 325.527 23.5977C327.793 23.7539 329.746 23.9883 331.387 24.3008C333.066 24.5742 334.883 24.9844 336.836 25.5312C338.789 26.0391 340.469 26.6641 341.875 27.4062C343.281 28.1484 344.668 29.0859 346.035 30.2188C347.402 31.3125 348.496 32.5625 349.316 33.9688C350.176 35.3359 350.859 36.9766 351.367 38.8906C351.914 40.7656 352.188 42.8359 352.188 45.1016V65.6094H308.945V89.3398H318.73V72.6992H352.188ZM402.461 74.8672H402.52C402.207 74.5156 401.348 74.2422 399.941 74.0469C399.199 73.9297 397.891 73.7539 396.016 73.5195C394.18 73.2852 392.734 73.1094 391.68 72.9922C390.664 72.8359 389.375 72.6406 387.812 72.4062C386.289 72.1328 384.883 71.8594 383.594 71.5859C382.305 71.3125 381.074 71.0195 379.902 70.707C377.012 69.9258 374.375 68.9102 371.992 67.6602C369.648 66.4102 367.48 64.8867 365.488 63.0898C363.535 61.293 362.012 59.1445 360.918 56.6445C359.824 54.1055 359.277 51.3125 359.277 48.2656C359.277 45.2578 359.629 42.543 360.332 40.1211C361.035 37.6992 361.992 35.6289 363.203 33.9102C364.414 32.1914 365.957 30.707 367.832 29.457C369.746 28.168 371.758 27.1328 373.867 26.3516C375.977 25.5703 378.418 24.9453 381.191 24.4766C383.965 24.0078 386.699 23.6953 389.395 23.5391C392.09 23.3438 395.117 23.2461 398.477 23.2461C401.211 23.2461 403.555 23.2852 405.508 23.3633C407.5 23.4414 409.824 23.6367 412.48 23.9492C415.137 24.2617 417.402 24.7109 419.277 25.2969C421.152 25.8437 423.086 26.6641 425.078 27.7578C427.07 28.8516 428.672 30.1406 429.883 31.625C431.094 33.1094 432.09 35.0039 432.871 37.3086C433.691 39.5742 434.102 42.1328 434.102 44.9844C434.102 47.6797 434.082 49.3203 434.043 49.9062L402.461 48.1484V38.7148H392.676V50.5508C393.027 50.9023 393.906 51.1953 395.312 51.4297C396.367 51.5859 398.438 51.8984 401.523 52.3672C404.609 52.7969 407.227 53.207 409.375 53.5977C411.523 53.9883 413.516 54.4375 415.352 54.9453C418.164 55.7266 420.723 56.7031 423.027 57.875C425.371 59.0078 427.539 60.4336 429.531 62.1523C431.523 63.832 433.086 65.9023 434.219 68.3633C435.352 70.7852 435.918 73.4609 435.918 76.3906C435.918 79.3594 435.625 82.0547 435.039 84.4766C434.492 86.8984 433.652 88.9883 432.52 90.7461C431.426 92.5039 430.176 94.0469 428.77 95.375C427.402 96.7031 425.723 97.7969 423.73 98.6562C421.738 99.5156 419.785 100.238 417.871 100.824C415.957 101.371 413.73 101.781 411.191 102.055C408.652 102.328 406.309 102.504 404.16 102.582C402.012 102.699 399.551 102.758 396.777 102.758C393.496 102.758 390.664 102.699 388.281 102.582C385.898 102.465 383.379 102.191 380.723 101.762C378.066 101.371 375.82 100.824 373.984 100.121C372.188 99.3789 370.41 98.3828 368.652 97.1328C366.895 95.8828 365.488 94.3984 364.434 92.6797C363.418 90.9219 362.598 88.793 361.973 86.293C361.348 83.793 361.035 80.9414 361.035 77.7383C361.035 76.8398 361.055 76.1562 361.094 75.6875L392.676 77.5625V87.3477H402.461V74.8672Z" fill="#F2F2F2"/>
</svg>
