<svg width="1445" height="1349" viewBox="0 0 1445 1349" fill="none" xmlns="http://www.w3.org/2000/svg">
<g filter="url(#filter0_i_919_1443)">
<path fill-rule="evenodd" clip-rule="evenodd" d="M969.609 68C1137.01 164.65 1197.61 373.084 1104.97 533.552C1097.94 545.721 1090.24 557.265 1081.92 568.166C1146.31 413.994 1082.82 229.2 928.109 139.88C773.402 50.5598 581.62 87.9712 480.296 220.817C485.58 208.166 491.724 195.721 498.75 183.552C591.396 23.0843 802.206 -28.6498 969.609 68Z" fill="#EEEEEE"/>
<path fill-rule="evenodd" clip-rule="evenodd" d="M58.707 763.641C124.819 581.999 319.564 486.123 493.681 549.496C503.299 552.997 512.652 556.91 521.73 561.21C366.925 539.62 210.624 632.889 152.782 791.806C90.3218 963.415 165.022 1150.18 320.293 1223.73C298.156 1220.65 276.05 1215.21 254.267 1207.28C80.1498 1143.91 -7.40533 945.283 58.707 763.641Z" fill="#EEEEEE"/>
<path fill-rule="evenodd" clip-rule="evenodd" d="M1225.61 1282.99C1393.01 1186.34 1453.61 977.907 1360.97 817.44C1353.94 805.27 1346.24 793.727 1337.92 782.825C1402.31 936.998 1338.82 1121.79 1184.11 1211.11C1029.4 1300.43 837.62 1263.02 736.296 1130.17C741.58 1142.83 747.724 1155.27 754.75 1167.44C847.396 1327.91 1058.21 1379.64 1225.61 1282.99Z" fill="#EEEEEE"/>
</g>
<path d="M657.771 293H651.736L648.426 281.838H632.283L629.09 293H623.377L636.766 249.348H644.705L657.771 293ZM647.195 277.619L643.504 264.523L640.457 253.801C639.324 257.844 638.328 261.32 637.469 264.23L633.543 277.619H647.195ZM683.986 260.129L683.752 265.021C683.01 264.924 682.307 264.875 681.643 264.875C680.256 264.875 679.133 265.012 678.273 265.285C677.414 265.559 676.76 266.027 676.311 266.691C675.881 267.355 675.588 268.117 675.432 268.977C675.295 269.816 675.227 270.949 675.227 272.375C675.227 273.176 675.256 274.348 675.314 275.891C675.393 277.434 675.432 278.537 675.432 279.201V293H669.66V260.861H674.904L675.49 264.465C676.096 263.059 677.014 261.975 678.244 261.213C679.475 260.432 680.949 260.041 682.668 260.041C683.098 260.041 683.537 260.07 683.986 260.129ZM721.627 293H716.354L715.797 288.957C714.605 291.945 711.49 293.439 706.451 293.439C705.104 293.439 703.893 293.352 702.818 293.176C701.764 293 700.846 292.697 700.064 292.268C699.303 291.838 698.648 291.398 698.102 290.949C697.555 290.48 697.096 289.816 696.725 288.957C696.373 288.078 696.09 287.287 695.875 286.584C695.68 285.861 695.533 284.865 695.436 283.596C695.338 282.326 695.279 281.223 695.26 280.285C695.24 279.328 695.23 278.039 695.23 276.418C695.23 274.836 695.25 273.469 695.289 272.316C695.348 271.164 695.445 270.021 695.582 268.889C695.738 267.756 695.934 266.809 696.168 266.047C696.422 265.266 696.754 264.514 697.164 263.791C697.574 263.068 698.062 262.492 698.629 262.062C699.215 261.613 699.908 261.223 700.709 260.891C701.51 260.539 702.428 260.295 703.463 260.158C704.498 260.021 705.67 259.953 706.979 259.953C709.498 259.953 711.451 260.295 712.838 260.979C714.244 261.643 715.25 262.707 715.855 264.172V248.498L721.627 248.029V293ZM715.855 285.529V268.449C715.855 266.75 715.328 265.588 714.273 264.963C713.219 264.318 711.236 263.996 708.326 263.996C706.061 263.996 704.381 264.162 703.287 264.494C702.389 264.768 701.783 265.578 701.471 266.926C701.158 268.254 701.002 270.051 701.002 272.316C701.002 275.617 701.061 280.236 701.178 286.174C701.275 287.463 701.793 288.332 702.73 288.781C703.688 289.211 705.553 289.426 708.326 289.426C711.061 289.426 712.965 289.152 714.039 288.605C715.133 288.059 715.738 287.033 715.855 285.529ZM762.051 293.029H756.719L756.191 288.898C755.684 290.441 754.57 291.584 752.852 292.326C751.152 293.068 749.072 293.439 746.611 293.439C744.932 293.439 743.516 293.273 742.363 292.941C741.211 292.609 740.244 292.131 739.463 291.506C738.701 290.861 738.105 289.973 737.676 288.84C737.266 287.688 736.973 286.408 736.797 285.002C736.641 283.576 736.562 281.809 736.562 279.699V260.861H742.334V279.523C742.334 279.953 742.324 280.539 742.305 281.281C742.305 282.004 742.305 282.512 742.305 282.805C742.305 283.84 742.324 284.65 742.363 285.236C742.402 285.822 742.5 286.398 742.656 286.965C742.832 287.531 743.057 287.951 743.33 288.225C743.604 288.479 744.014 288.713 744.561 288.928C745.107 289.143 745.732 289.279 746.436 289.338C747.158 289.396 748.076 289.426 749.189 289.426C750.439 289.426 751.504 289.338 752.383 289.162C753.262 288.986 753.955 288.762 754.463 288.488C754.971 288.195 755.352 287.805 755.605 287.316C755.879 286.828 756.055 286.35 756.133 285.881C756.211 285.412 756.25 284.826 756.25 284.123C756.25 283.889 756.24 283.508 756.221 282.98C756.221 282.453 756.221 282.053 756.221 281.779V260.861H762.051V293.029ZM806.898 263.586C806.898 265.363 806.801 266.945 806.605 268.332C806.41 269.719 806.146 270.91 805.814 271.906C805.502 272.883 805.062 273.723 804.496 274.426C803.949 275.129 803.363 275.695 802.738 276.125C802.133 276.555 801.391 276.896 800.512 277.15C799.652 277.385 798.793 277.541 797.934 277.619C797.094 277.697 796.107 277.736 794.975 277.736H783.344V293H777.426V249.348H793.246C795.062 249.348 796.596 249.426 797.846 249.582C799.115 249.719 800.287 249.982 801.361 250.373C802.436 250.764 803.295 251.291 803.939 251.955C804.584 252.619 805.141 253.488 805.609 254.562C806.078 255.637 806.4 256.906 806.576 258.371C806.771 259.816 806.879 261.555 806.898 263.586ZM800.98 263.264C800.961 261.857 800.922 260.715 800.863 259.836C800.805 258.957 800.688 258.127 800.512 257.346C800.355 256.564 800.141 255.969 799.867 255.559C799.613 255.148 799.252 254.797 798.783 254.504C798.334 254.191 797.797 253.986 797.172 253.889C796.566 253.791 795.805 253.742 794.887 253.742H783.344V273.312H793.686C795.209 273.312 796.449 273.186 797.406 272.932C798.363 272.678 799.105 272.258 799.633 271.672C800.18 271.066 800.541 270.363 800.717 269.562C800.912 268.762 801.01 267.727 801.01 266.457C801.01 266.145 801 265.637 800.98 264.934C800.98 264.23 800.98 263.674 800.98 263.264ZM826.199 293H820.428V260.861H826.199V293ZM826.199 248.439V253.508H820.428V248.439H826.199ZM847.521 293H841.75V249.465L847.521 248.996V293ZM875.377 289.396C878.15 289.338 880.074 289.133 881.148 288.781C882.242 288.43 882.789 287.736 882.789 286.701C883.004 283.908 883.111 280.676 883.111 277.004C883.111 275.793 883.062 274.064 882.965 271.818C882.867 269.553 882.818 267.873 882.818 266.779C882.818 266.447 882.76 266.145 882.643 265.871C882.545 265.598 882.369 265.373 882.115 265.197C881.881 265.002 881.637 264.836 881.383 264.699C881.148 264.562 880.807 264.455 880.357 264.377C879.928 264.299 879.557 264.23 879.244 264.172C878.951 264.113 878.521 264.074 877.955 264.055C877.408 264.035 876.979 264.025 876.666 264.025C876.373 264.025 875.934 264.025 875.348 264.025C874.762 264.025 874.312 264.025 874 264.025C873.707 264.025 873.277 264.035 872.711 264.055C872.164 264.074 871.734 264.113 871.422 264.172C871.129 264.23 870.758 264.299 870.309 264.377C869.879 264.455 869.537 264.562 869.283 264.699C869.049 264.836 868.805 265.002 868.551 265.197C868.316 265.373 868.141 265.598 868.023 265.871C867.926 266.145 867.877 266.447 867.877 266.779C867.877 267.873 867.828 269.553 867.73 271.818C867.633 274.064 867.584 275.793 867.584 277.004C867.584 280.676 867.691 283.908 867.906 286.701C867.906 287.736 868.473 288.449 869.605 288.84C870.758 289.211 872.682 289.396 875.377 289.396ZM875.318 293.439C873.15 293.439 871.344 293.352 869.898 293.176C868.453 293 867.203 292.619 866.148 292.033C865.113 291.428 864.322 290.793 863.775 290.129C863.229 289.445 862.799 288.381 862.486 286.936C862.174 285.471 861.979 284.025 861.9 282.6C861.842 281.174 861.812 279.191 861.812 276.652C861.812 274.758 861.832 273.176 861.871 271.906C861.93 270.637 862.047 269.396 862.223 268.186C862.398 266.955 862.613 265.969 862.867 265.227C863.141 264.465 863.521 263.752 864.01 263.088C864.518 262.404 865.084 261.887 865.709 261.535C866.334 261.184 867.125 260.881 868.082 260.627C869.059 260.354 870.113 260.178 871.246 260.1C872.398 260.002 873.766 259.953 875.348 259.953C876.93 259.953 878.287 260.002 879.42 260.1C880.572 260.178 881.627 260.354 882.584 260.627C883.561 260.881 884.361 261.184 884.986 261.535C885.611 261.887 886.168 262.404 886.656 263.088C887.164 263.752 887.545 264.465 887.799 265.227C888.072 265.969 888.297 266.955 888.473 268.186C888.648 269.396 888.756 270.637 888.795 271.906C888.854 273.176 888.883 274.758 888.883 276.652C888.883 279.191 888.844 281.174 888.766 282.6C888.707 284.025 888.521 285.471 888.209 286.936C887.896 288.381 887.457 289.445 886.891 290.129C886.344 290.812 885.543 291.447 884.488 292.033C883.453 292.619 882.213 293 880.768 293.176C879.322 293.352 877.506 293.439 875.318 293.439ZM915.713 288.928L915.596 293.029C913.955 293.303 912.471 293.439 911.143 293.439C909.717 293.439 908.535 293.283 907.598 292.971C906.68 292.658 905.986 292.16 905.518 291.477C905.049 290.793 904.727 290.041 904.551 289.221C904.375 288.381 904.287 287.316 904.287 286.027V264.143H899.922V260.861H904.287V251.721L910.029 251.252V260.861H915.947V264.143H910.029V284.064C910.029 286.174 910.127 287.541 910.322 288.166C910.537 288.791 911.104 289.104 912.021 289.104C912.92 289.104 914.15 289.045 915.713 288.928Z" fill="black"/>
<path d="M242.041 1024H219.863V980.348H225.811V1019.52H242.627L242.041 1024ZM280.004 1007.48C277.66 1007.71 276.205 1007.85 275.639 1007.89H259.672C259.691 1010.72 259.77 1013.82 259.906 1017.2C260.004 1018.51 260.561 1019.38 261.576 1019.81C262.611 1020.22 264.613 1020.43 267.582 1020.43C268.695 1020.43 269.652 1020.39 270.453 1020.31C271.254 1020.21 271.898 1020.05 272.387 1019.84C272.895 1019.61 273.285 1019.39 273.559 1019.2C273.852 1018.98 274.066 1018.66 274.203 1018.23C274.34 1017.78 274.428 1017.41 274.467 1017.12C274.506 1016.8 274.545 1016.34 274.584 1015.74C274.623 1015.11 274.672 1014.61 274.73 1014.21L279.213 1015.04C279.174 1016.4 279.076 1017.56 278.92 1018.52C278.764 1019.46 278.5 1020.29 278.129 1021.01C277.758 1021.73 277.318 1022.31 276.811 1022.74C276.303 1023.15 275.619 1023.49 274.76 1023.77C273.9 1024.04 272.953 1024.21 271.918 1024.29C270.883 1024.39 269.604 1024.44 268.08 1024.44C266.127 1024.44 264.428 1024.32 262.982 1024.09C261.537 1023.87 260.297 1023.6 259.262 1023.27C258.246 1022.94 257.406 1022.4 256.742 1021.66C256.078 1020.89 255.551 1020.17 255.16 1019.49C254.789 1018.8 254.516 1017.8 254.34 1016.47C254.164 1015.14 254.047 1013.94 253.988 1012.87C253.949 1011.77 253.93 1010.27 253.93 1008.36C253.93 1005.66 253.959 1003.56 254.018 1002.06C254.096 1000.55 254.291 999.049 254.604 997.545C254.916 996.021 255.336 994.918 255.863 994.234C256.391 993.551 257.172 992.916 258.207 992.33C259.242 991.744 260.463 991.373 261.869 991.217C263.275 991.041 265.062 990.953 267.23 990.953C268.734 990.953 270.033 991.002 271.127 991.1C272.221 991.178 273.227 991.354 274.145 991.627C275.062 991.9 275.814 992.213 276.4 992.564C277.006 992.916 277.533 993.434 277.982 994.117C278.451 994.801 278.803 995.514 279.037 996.256C279.291 996.979 279.496 997.945 279.652 999.156C279.809 1000.37 279.906 1001.6 279.945 1002.85C279.984 1004.08 280.004 1005.62 280.004 1007.48ZM259.701 1004.81H274.232C274.193 1002.31 274.096 1000.03 273.939 997.955C273.861 996.764 273.344 995.973 272.387 995.582C271.449 995.172 269.721 994.967 267.201 994.967C264.408 994.967 262.641 995.123 261.898 995.436C261.566 995.533 261.273 995.709 261.02 995.963C260.785 996.197 260.59 996.539 260.434 996.988C260.277 997.438 260.15 997.857 260.053 998.248C259.975 998.639 259.906 999.186 259.848 999.889C259.809 1000.57 259.779 1001.11 259.76 1001.5C259.74 1001.87 259.721 1002.45 259.701 1003.23C259.701 1004.01 259.701 1004.54 259.701 1004.81ZM316.941 1024H312.371L311.434 1019.4C310.848 1021.41 309.783 1022.76 308.24 1023.44C306.717 1024.11 304.48 1024.44 301.531 1024.44C299.578 1024.44 297.977 1024.25 296.727 1023.88C295.477 1023.49 294.48 1022.85 293.738 1021.95C292.996 1021.05 292.479 1019.96 292.186 1018.67C291.912 1017.36 291.775 1015.68 291.775 1013.63C291.775 1012.71 291.932 1011.89 292.244 1011.17C292.576 1010.45 293.016 1009.83 293.562 1009.32C294.129 1008.81 294.871 1008.38 295.789 1008C296.727 1007.63 297.693 1007.34 298.689 1007.12C299.686 1006.91 300.887 1006.74 302.293 1006.63C303.719 1006.49 305.105 1006.4 306.453 1006.36C307.801 1006.32 309.373 1006.3 311.17 1006.3V997.604C311.17 996.607 310.701 995.924 309.764 995.553C308.826 995.162 307.156 994.967 304.754 994.967C303.074 994.967 301.814 995.006 300.975 995.084C300.135 995.162 299.49 995.396 299.041 995.787C298.611 996.158 298.357 996.529 298.279 996.9C298.221 997.271 298.182 997.965 298.162 998.98C298.143 999.352 298.133 999.645 298.133 999.859L293.65 999.684C293.611 999.371 293.592 998.912 293.592 998.307C293.592 996.998 293.777 995.895 294.148 994.996C294.539 994.078 295.037 993.365 295.643 992.857C296.248 992.33 297.078 991.92 298.133 991.627C299.188 991.334 300.232 991.148 301.268 991.07C302.303 990.992 303.592 990.953 305.135 990.953C307.479 990.953 309.383 991.139 310.848 991.51C312.312 991.861 313.514 992.506 314.451 993.443C315.389 994.381 316.033 995.582 316.385 997.047C316.756 998.492 316.941 1000.39 316.941 1002.73V1024ZM311.17 1014.8V1009.79C307.322 1009.79 304.363 1009.94 302.293 1010.23C300.223 1010.52 298.836 1010.93 298.133 1011.46C297.449 1011.97 297.107 1012.69 297.107 1013.63C297.107 1013.67 297.107 1013.73 297.107 1013.8C297.107 1016.77 297.352 1018.62 297.84 1019.34C298.328 1020.06 299.822 1020.43 302.322 1020.43C304.451 1020.43 306.18 1020.17 307.508 1019.66C308.836 1019.16 309.754 1018.51 310.262 1017.73C310.789 1016.93 311.092 1015.95 311.17 1014.8ZM346.174 991.129L345.939 996.021C345.197 995.924 344.494 995.875 343.83 995.875C342.443 995.875 341.32 996.012 340.461 996.285C339.602 996.559 338.947 997.027 338.498 997.691C338.068 998.355 337.775 999.117 337.619 999.977C337.482 1000.82 337.414 1001.95 337.414 1003.38C337.414 1004.18 337.443 1005.35 337.502 1006.89C337.58 1008.43 337.619 1009.54 337.619 1010.2V1024H331.848V991.861H337.092L337.678 995.465C338.283 994.059 339.201 992.975 340.432 992.213C341.662 991.432 343.137 991.041 344.855 991.041C345.285 991.041 345.725 991.07 346.174 991.129ZM384.283 1024H378.512V1004.55C378.512 1003.3 378.502 1002.3 378.482 1001.56C378.482 1000.8 378.443 1000.04 378.365 999.273C378.307 998.512 378.238 997.945 378.16 997.574C378.082 997.184 377.936 996.803 377.721 996.432C377.525 996.041 377.32 995.777 377.105 995.641C376.891 995.504 376.578 995.377 376.168 995.26C375.758 995.123 375.348 995.045 374.938 995.025C374.527 995.006 373.98 994.996 373.297 994.996C371.812 994.996 370.543 995.084 369.488 995.26C368.453 995.416 367.604 995.641 366.939 995.934C366.275 996.227 365.758 996.637 365.387 997.164C365.035 997.691 364.791 998.268 364.654 998.893C364.518 999.498 364.449 1000.25 364.449 1001.15C364.449 1001.66 364.479 1002.54 364.537 1003.81C364.596 1005.06 364.625 1006.08 364.625 1006.86V1024H358.854V991.861H364.127L364.684 995.465C365.191 993.863 366.314 992.711 368.053 992.008C369.791 991.305 371.861 990.953 374.264 990.953C375.396 990.953 376.402 991.021 377.281 991.158C378.16 991.295 378.941 991.529 379.625 991.861C380.309 992.174 380.895 992.535 381.383 992.945C381.891 993.355 382.311 993.902 382.643 994.586C382.994 995.25 383.277 995.934 383.492 996.637C383.707 997.34 383.873 998.219 383.99 999.273C384.107 1000.33 384.186 1001.38 384.225 1002.44C384.264 1003.47 384.283 1004.71 384.283 1006.16V1024ZM405.254 1024H399.482V991.861H405.254V1024ZM405.254 979.439V984.508H399.482V979.439H405.254ZM445.971 1024H440.199V1004.55C440.199 1003.3 440.189 1002.3 440.17 1001.56C440.17 1000.8 440.131 1000.04 440.053 999.273C439.994 998.512 439.926 997.945 439.848 997.574C439.77 997.184 439.623 996.803 439.408 996.432C439.213 996.041 439.008 995.777 438.793 995.641C438.578 995.504 438.266 995.377 437.855 995.26C437.445 995.123 437.035 995.045 436.625 995.025C436.215 995.006 435.668 994.996 434.984 994.996C433.5 994.996 432.23 995.084 431.176 995.26C430.141 995.416 429.291 995.641 428.627 995.934C427.963 996.227 427.445 996.637 427.074 997.164C426.723 997.691 426.479 998.268 426.342 998.893C426.205 999.498 426.137 1000.25 426.137 1001.15C426.137 1001.66 426.166 1002.54 426.225 1003.81C426.283 1005.06 426.312 1006.08 426.312 1006.86V1024H420.541V991.861H425.814L426.371 995.465C426.879 993.863 428.002 992.711 429.74 992.008C431.479 991.305 433.549 990.953 435.951 990.953C437.084 990.953 438.09 991.021 438.969 991.158C439.848 991.295 440.629 991.529 441.312 991.861C441.996 992.174 442.582 992.535 443.07 992.945C443.578 993.355 443.998 993.902 444.33 994.586C444.682 995.25 444.965 995.934 445.18 996.637C445.395 997.34 445.561 998.219 445.678 999.273C445.795 1000.33 445.873 1001.38 445.912 1002.44C445.951 1003.47 445.971 1004.71 445.971 1006.16V1024ZM486.219 991.861V1019.93C486.219 1021.86 486.15 1023.49 486.014 1024.82C485.896 1026.15 485.662 1027.39 485.311 1028.54C484.979 1029.69 484.52 1030.61 483.934 1031.29C483.348 1032 482.566 1032.6 481.59 1033.11C480.633 1033.62 479.5 1033.97 478.191 1034.17C476.883 1034.36 475.311 1034.46 473.475 1034.46C469.646 1034.46 466.6 1034.06 464.334 1033.26L464.715 1029.27C466.902 1029.88 469.5 1030.18 472.508 1030.18C473.934 1030.18 475.135 1030.1 476.111 1029.95C477.107 1029.79 477.879 1029.6 478.426 1029.36C478.992 1029.13 479.422 1028.79 479.715 1028.34C480.027 1027.91 480.223 1027.48 480.301 1027.05C480.398 1026.62 480.447 1026.07 480.447 1025.41L480.418 1020.16C479.891 1021.53 478.982 1022.53 477.693 1023.15C476.404 1023.78 474.588 1024.09 472.244 1024.09C470.564 1024.09 469.1 1023.97 467.85 1023.74C466.6 1023.5 465.535 1023.21 464.656 1022.86C463.777 1022.51 463.045 1021.96 462.459 1021.22C461.893 1020.46 461.443 1019.74 461.111 1019.08C460.779 1018.39 460.535 1017.43 460.379 1016.18C460.223 1014.91 460.125 1013.78 460.086 1012.78C460.047 1011.76 460.027 1010.39 460.027 1008.65C460.027 1006.44 460.047 1004.71 460.086 1003.46C460.125 1002.21 460.213 1000.87 460.35 999.42C460.486 997.955 460.711 996.852 461.023 996.109C461.336 995.367 461.736 994.615 462.225 993.854C462.732 993.072 463.387 992.516 464.188 992.184C464.988 991.852 465.926 991.578 467 991.363C468.094 991.148 469.393 991.041 470.896 991.041C473.455 991.041 475.506 991.393 477.049 992.096C478.592 992.779 479.715 993.893 480.418 995.436L480.975 991.861H486.219ZM480.447 1017.47V999.596C480.447 997.955 479.9 996.783 478.807 996.08C477.732 995.357 475.799 994.996 473.006 994.996C470.271 994.996 468.396 995.24 467.381 995.729C466.287 996.256 465.74 998.395 465.74 1002.14C465.74 1007.79 465.818 1012.71 465.975 1016.91C466.033 1017.83 466.268 1018.5 466.678 1018.93C467.107 1019.36 467.83 1019.66 468.846 1019.84C469.861 1020 471.453 1020.07 473.621 1020.07C477.977 1020.07 480.252 1019.21 480.447 1017.47Z" fill="black"/>
<path d="M986.516 941.197C986.516 942.467 986.477 943.619 986.398 944.654C986.32 945.67 986.174 946.607 985.959 947.467C985.764 948.307 985.549 949.049 985.314 949.693C985.08 950.338 984.748 950.914 984.318 951.422C983.889 951.91 983.459 952.33 983.029 952.682C982.619 953.033 982.072 953.336 981.389 953.59C980.725 953.824 980.08 954.01 979.455 954.146C978.83 954.303 978.049 954.42 977.111 954.498C976.174 954.576 975.275 954.625 974.416 954.645C973.576 954.684 972.541 954.703 971.311 954.703C968.986 954.703 967.033 954.635 965.451 954.498C963.889 954.361 962.551 954.068 961.438 953.619C960.344 953.17 959.494 952.711 958.889 952.242C958.283 951.754 957.805 950.992 957.453 949.957C957.102 948.902 956.867 947.896 956.75 946.939C956.652 945.982 956.564 944.625 956.486 942.867L961.906 941.988C961.965 942.418 962.023 943.023 962.082 943.805C962.199 945.016 962.307 945.875 962.404 946.383C962.521 946.871 962.736 947.418 963.049 948.023C963.361 948.629 963.85 949.029 964.514 949.225C965.178 949.4 966.047 949.557 967.121 949.693C968.195 949.83 969.631 949.898 971.428 949.898C972.912 949.898 974.133 949.859 975.09 949.781C976.047 949.703 976.887 949.547 977.609 949.312C978.332 949.059 978.879 948.775 979.25 948.463C979.621 948.15 979.914 947.672 980.129 947.027C980.363 946.363 980.51 945.68 980.568 944.977C980.627 944.273 980.646 943.336 980.627 942.164C980.607 939.586 980.461 937.809 980.188 936.832C979.934 935.836 979.377 935.25 978.518 935.074L963.928 932.525C961.389 932.096 959.621 931.129 958.625 929.625C957.629 928.121 957.102 925.689 957.043 922.33C957.043 920.533 957.131 919 957.307 917.73C957.502 916.441 957.824 915.318 958.273 914.361C958.742 913.385 959.309 912.604 959.973 912.018C960.656 911.432 961.545 910.963 962.639 910.611C963.752 910.24 964.963 909.996 966.271 909.879C967.6 909.742 969.221 909.674 971.135 909.674C972.697 909.674 974.035 909.713 975.148 909.791C976.281 909.85 977.375 909.967 978.43 910.143C979.504 910.318 980.393 910.562 981.096 910.875C981.799 911.188 982.443 911.598 983.029 912.105C983.635 912.594 984.104 913.199 984.436 913.922C984.768 914.625 985.021 915.455 985.197 916.412C985.373 917.369 985.461 918.473 985.461 919.723L980.246 920.924C980.051 918.775 979.924 917.555 979.865 917.262C979.631 916.266 979.074 915.592 978.195 915.24C977.219 914.83 975.178 914.625 972.072 914.625C970.373 914.625 968.967 914.674 967.854 914.771C966.76 914.869 965.861 915.016 965.158 915.211C964.455 915.387 963.928 915.66 963.576 916.031C963.244 916.402 963.02 916.803 962.902 917.232C962.785 917.643 962.727 918.189 962.727 918.873V923.941C962.727 925.777 963.527 926.832 965.129 927.105L975.617 928.893C976.594 929.049 977.375 929.186 977.961 929.303C978.547 929.42 979.221 929.576 979.982 929.771C980.744 929.967 981.34 930.172 981.77 930.387C982.199 930.602 982.678 930.875 983.205 931.207C983.732 931.539 984.143 931.91 984.436 932.32C984.729 932.73 985.021 933.219 985.314 933.785C985.627 934.352 985.852 934.996 985.988 935.719C986.145 936.422 986.271 937.232 986.369 938.15C986.467 939.049 986.516 940.064 986.516 941.197ZM1025.45 937.477C1023.1 937.711 1021.65 937.848 1021.08 937.887H1005.11C1005.13 940.719 1005.21 943.824 1005.35 947.203C1005.45 948.512 1006 949.381 1007.02 949.811C1008.05 950.221 1010.05 950.426 1013.02 950.426C1014.14 950.426 1015.09 950.387 1015.89 950.309C1016.7 950.211 1017.34 950.055 1017.83 949.84C1018.34 949.605 1018.73 949.391 1019 949.195C1019.29 948.98 1019.51 948.658 1019.64 948.229C1019.78 947.779 1019.87 947.408 1019.91 947.115C1019.95 946.803 1019.99 946.344 1020.03 945.738C1020.06 945.113 1020.11 944.605 1020.17 944.215L1024.65 945.035C1024.62 946.402 1024.52 947.564 1024.36 948.521C1024.21 949.459 1023.94 950.289 1023.57 951.012C1023.2 951.734 1022.76 952.311 1022.25 952.74C1021.74 953.15 1021.06 953.492 1020.2 953.766C1019.34 954.039 1018.39 954.215 1017.36 954.293C1016.32 954.391 1015.04 954.439 1013.52 954.439C1011.57 954.439 1009.87 954.322 1008.42 954.088C1006.98 953.873 1005.74 953.6 1004.7 953.268C1003.69 952.936 1002.85 952.398 1002.18 951.656C1001.52 950.895 1000.99 950.172 1000.6 949.488C1000.23 948.805 999.957 947.799 999.781 946.471C999.605 945.143 999.488 943.941 999.43 942.867C999.391 941.773 999.371 940.27 999.371 938.355C999.371 935.66 999.4 933.561 999.459 932.057C999.537 930.553 999.732 929.049 1000.04 927.545C1000.36 926.021 1000.78 924.918 1001.3 924.234C1001.83 923.551 1002.61 922.916 1003.65 922.33C1004.68 921.744 1005.9 921.373 1007.31 921.217C1008.72 921.041 1010.5 920.953 1012.67 920.953C1014.18 920.953 1015.47 921.002 1016.57 921.1C1017.66 921.178 1018.67 921.354 1019.59 921.627C1020.5 921.9 1021.26 922.213 1021.84 922.564C1022.45 922.916 1022.97 923.434 1023.42 924.117C1023.89 924.801 1024.24 925.514 1024.48 926.256C1024.73 926.979 1024.94 927.945 1025.09 929.156C1025.25 930.367 1025.35 931.598 1025.39 932.848C1025.43 934.078 1025.45 935.621 1025.45 937.477ZM1005.14 934.811H1019.67C1019.63 932.311 1019.54 930.025 1019.38 927.955C1019.3 926.764 1018.79 925.973 1017.83 925.582C1016.89 925.172 1015.16 924.967 1012.64 924.967C1009.85 924.967 1008.08 925.123 1007.34 925.436C1007.01 925.533 1006.71 925.709 1006.46 925.963C1006.23 926.197 1006.03 926.539 1005.88 926.988C1005.72 927.438 1005.59 927.857 1005.49 928.248C1005.42 928.639 1005.35 929.186 1005.29 929.889C1005.25 930.572 1005.22 931.109 1005.2 931.5C1005.18 931.871 1005.16 932.447 1005.14 933.229C1005.14 934.01 1005.14 934.537 1005.14 934.811ZM1053.62 921.129L1053.39 926.021C1052.65 925.924 1051.94 925.875 1051.28 925.875C1049.89 925.875 1048.77 926.012 1047.91 926.285C1047.05 926.559 1046.4 927.027 1045.95 927.691C1045.52 928.355 1045.22 929.117 1045.07 929.977C1044.93 930.816 1044.86 931.949 1044.86 933.375C1044.86 934.176 1044.89 935.348 1044.95 936.891C1045.03 938.434 1045.07 939.537 1045.07 940.201V954H1039.3V921.861H1044.54L1045.13 925.465C1045.73 924.059 1046.65 922.975 1047.88 922.213C1049.11 921.432 1050.59 921.041 1052.3 921.041C1052.73 921.041 1053.17 921.07 1053.62 921.129ZM1090.09 921.861L1079.46 954H1073.19L1063.08 921.861H1068.5L1076.35 948.99L1084.14 921.861H1090.09ZM1107.9 954H1102.13V921.861H1107.9V954ZM1107.9 909.439V914.508H1102.13V909.439H1107.9ZM1147.56 931.119L1142.81 931.91L1142.2 927.838C1142.04 926.9 1141.86 926.305 1141.64 926.051C1141.13 925.465 1139.73 925.133 1137.42 925.055C1136.88 925.035 1136.27 925.025 1135.61 925.025C1132.95 925.025 1131.21 925.172 1130.39 925.465C1129.49 925.621 1128.84 926.51 1128.43 928.131C1128.02 929.752 1127.81 931.734 1127.81 934.078L1127.84 939.146C1127.84 939.85 1127.84 940.816 1127.84 942.047C1127.84 943.648 1127.84 944.781 1127.84 945.445C1127.84 946.09 1127.93 946.832 1128.11 947.672C1128.28 948.492 1128.48 949.01 1128.69 949.225C1128.93 949.42 1129.36 949.654 1129.98 949.928C1130.61 950.201 1131.27 950.348 1131.97 950.367C1132.7 950.387 1133.73 950.396 1135.08 950.396C1136.13 950.396 1137.04 950.357 1137.8 950.279C1138.59 950.201 1139.24 950.113 1139.77 950.016C1140.31 949.898 1140.75 949.713 1141.09 949.459C1141.44 949.186 1141.7 948.941 1141.88 948.727C1142.07 948.512 1142.22 948.18 1142.32 947.73C1142.41 947.262 1142.47 946.861 1142.49 946.529C1142.53 946.197 1142.57 945.699 1142.61 945.035C1142.65 944.352 1142.7 943.775 1142.76 943.307L1147.56 944.127C1147.44 945.65 1147.31 946.871 1147.15 947.789C1147.01 948.707 1146.77 949.596 1146.42 950.455C1146.09 951.314 1145.66 951.969 1145.13 952.418C1144.62 952.848 1143.91 953.238 1142.99 953.59C1142.09 953.941 1141.04 954.166 1139.83 954.264C1138.63 954.381 1137.14 954.439 1135.34 954.439C1134.05 954.439 1132.89 954.4 1131.86 954.322C1130.84 954.244 1129.91 954.088 1129.07 953.854C1128.23 953.6 1127.5 953.365 1126.88 953.15C1126.25 952.916 1125.7 952.516 1125.21 951.949C1124.74 951.383 1124.34 950.895 1124.01 950.484C1123.69 950.074 1123.43 949.41 1123.21 948.492C1123 947.574 1122.83 946.793 1122.72 946.148C1122.6 945.504 1122.51 944.527 1122.45 943.219C1122.39 941.891 1122.36 940.768 1122.34 939.85C1122.34 938.932 1122.34 937.604 1122.34 935.865C1122.34 934.303 1122.37 932.955 1122.42 931.822C1122.48 930.67 1122.6 929.576 1122.78 928.541C1122.95 927.486 1123.18 926.617 1123.45 925.934C1123.74 925.23 1124.12 924.576 1124.59 923.971C1125.08 923.365 1125.63 922.887 1126.23 922.535C1126.86 922.184 1127.62 921.881 1128.52 921.627C1129.44 921.373 1130.43 921.197 1131.51 921.1C1132.6 921.002 1133.87 920.953 1135.31 920.953C1137.17 920.953 1138.72 921.051 1139.97 921.246C1141.24 921.422 1142.37 921.725 1143.34 922.154C1144.32 922.584 1145.09 923.199 1145.66 924C1146.22 924.781 1146.66 925.748 1146.97 926.9C1147.29 928.033 1147.48 929.439 1147.56 931.119ZM1185.93 937.477C1183.59 937.711 1182.13 937.848 1181.57 937.887H1165.6C1165.62 940.719 1165.7 943.824 1165.84 947.203C1165.93 948.512 1166.49 949.381 1167.51 949.811C1168.54 950.221 1170.54 950.426 1173.51 950.426C1174.62 950.426 1175.58 950.387 1176.38 950.309C1177.18 950.211 1177.83 950.055 1178.32 949.84C1178.82 949.605 1179.21 949.391 1179.49 949.195C1179.78 948.98 1180 948.658 1180.13 948.229C1180.27 947.779 1180.36 947.408 1180.4 947.115C1180.44 946.803 1180.47 946.344 1180.51 945.738C1180.55 945.113 1180.6 944.605 1180.66 944.215L1185.14 945.035C1185.1 946.402 1185.01 947.564 1184.85 948.521C1184.69 949.459 1184.43 950.289 1184.06 951.012C1183.69 951.734 1183.25 952.311 1182.74 952.74C1182.23 953.15 1181.55 953.492 1180.69 953.766C1179.83 954.039 1178.88 954.215 1177.85 954.293C1176.81 954.391 1175.53 954.439 1174.01 954.439C1172.06 954.439 1170.36 954.322 1168.91 954.088C1167.47 953.873 1166.23 953.6 1165.19 953.268C1164.18 952.936 1163.34 952.398 1162.67 951.656C1162.01 950.895 1161.48 950.172 1161.09 949.488C1160.72 948.805 1160.45 947.799 1160.27 946.471C1160.09 945.143 1159.98 943.941 1159.92 942.867C1159.88 941.773 1159.86 940.27 1159.86 938.355C1159.86 935.66 1159.89 933.561 1159.95 932.057C1160.03 930.553 1160.22 929.049 1160.53 927.545C1160.85 926.021 1161.27 924.918 1161.79 924.234C1162.32 923.551 1163.1 922.916 1164.14 922.33C1165.17 921.744 1166.39 921.373 1167.8 921.217C1169.21 921.041 1170.99 920.953 1173.16 920.953C1174.66 920.953 1175.96 921.002 1177.06 921.1C1178.15 921.178 1179.16 921.354 1180.07 921.627C1180.99 921.9 1181.74 922.213 1182.33 922.564C1182.94 922.916 1183.46 923.434 1183.91 924.117C1184.38 924.801 1184.73 925.514 1184.97 926.256C1185.22 926.979 1185.43 927.945 1185.58 929.156C1185.74 930.367 1185.84 931.598 1185.88 932.848C1185.91 934.078 1185.93 935.621 1185.93 937.477ZM1165.63 934.811H1180.16C1180.12 932.311 1180.03 930.025 1179.87 927.955C1179.79 926.764 1179.27 925.973 1178.32 925.582C1177.38 925.172 1175.65 924.967 1173.13 924.967C1170.34 924.967 1168.57 925.123 1167.83 925.436C1167.5 925.533 1167.2 925.709 1166.95 925.963C1166.71 926.197 1166.52 926.539 1166.36 926.988C1166.21 927.438 1166.08 927.857 1165.98 928.248C1165.9 928.639 1165.84 929.186 1165.78 929.889C1165.74 930.572 1165.71 931.109 1165.69 931.5C1165.67 931.871 1165.65 932.447 1165.63 933.229C1165.63 934.01 1165.63 934.537 1165.63 934.811ZM1223.02 945.094C1223.02 946.969 1222.81 948.512 1222.4 949.723C1221.99 950.914 1221.31 951.861 1220.35 952.564C1219.41 953.268 1218.26 953.756 1216.89 954.029C1215.55 954.303 1213.84 954.439 1211.77 954.439C1210.56 954.439 1209.58 954.43 1208.84 954.41C1208.12 954.391 1207.28 954.342 1206.32 954.264C1205.36 954.186 1204.6 954.068 1204.03 953.912C1203.47 953.736 1202.85 953.512 1202.19 953.238C1201.54 952.945 1201.04 952.584 1200.66 952.154C1200.29 951.705 1199.94 951.178 1199.61 950.572C1199.28 949.967 1199.04 949.254 1198.91 948.434C1198.77 947.594 1198.7 946.646 1198.7 945.592L1203.24 944.42C1203.42 946.646 1203.62 948.053 1203.86 948.639C1204.21 949.439 1204.94 949.947 1206.05 950.162C1206.89 950.338 1208.66 950.426 1211.36 950.426C1212.98 950.426 1214.18 950.357 1214.96 950.221C1215.76 950.064 1216.3 949.781 1216.57 949.371C1217.35 948.727 1217.74 946.529 1217.74 942.779C1217.74 942.213 1217.63 941.734 1217.39 941.344C1217.16 940.934 1216.88 940.631 1216.54 940.436C1216.21 940.221 1215.74 940.045 1215.14 939.908C1214.55 939.752 1214.01 939.654 1213.53 939.615C1213.06 939.557 1212.43 939.488 1211.65 939.41C1210.87 939.332 1210.24 939.264 1209.78 939.205C1208.35 939.049 1207.19 938.902 1206.29 938.766C1205.39 938.609 1204.48 938.385 1203.56 938.092C1202.65 937.799 1201.92 937.438 1201.4 937.008C1200.89 936.578 1200.42 936.021 1199.99 935.338C1199.56 934.654 1199.26 933.834 1199.08 932.877C1198.91 931.92 1198.82 930.777 1198.82 929.449C1198.82 928.043 1198.96 926.852 1199.26 925.875C1199.55 924.898 1199.98 924.088 1200.55 923.443C1201.11 922.799 1201.88 922.301 1202.86 921.949C1203.86 921.578 1204.97 921.324 1206.2 921.188C1207.43 921.031 1208.94 920.953 1210.71 920.953C1211.83 920.953 1212.73 920.973 1213.44 921.012C1214.16 921.031 1214.94 921.1 1215.78 921.217C1216.64 921.314 1217.33 921.461 1217.86 921.656C1218.39 921.852 1218.92 922.125 1219.44 922.477C1219.99 922.828 1220.41 923.268 1220.7 923.795C1221 924.303 1221.23 924.928 1221.41 925.67C1221.6 926.412 1221.7 927.262 1221.7 928.219L1217.77 929.42C1217.7 928.658 1217.62 928.062 1217.54 927.633C1217.48 927.184 1217.33 926.773 1217.1 926.402C1216.87 926.031 1216.62 925.768 1216.37 925.611C1216.11 925.455 1215.67 925.318 1215.05 925.201C1214.44 925.084 1213.83 925.016 1213.2 924.996C1212.58 924.977 1211.68 924.967 1210.51 924.967C1208.01 924.967 1206.31 925.221 1205.41 925.729C1204.53 926.217 1204.09 927.027 1204.09 928.16V931.148C1204.09 932.438 1204.47 933.258 1205.23 933.609C1206.02 933.941 1208.09 934.322 1211.45 934.752C1211.8 934.811 1212.06 934.85 1212.24 934.869C1213.58 935.025 1214.65 935.172 1215.43 935.309C1216.23 935.445 1217.07 935.631 1217.95 935.865C1218.83 936.08 1219.49 936.344 1219.94 936.656C1220.41 936.949 1220.87 937.33 1221.32 937.799C1221.79 938.268 1222.12 938.844 1222.31 939.527C1222.53 940.211 1222.7 941.002 1222.81 941.9C1222.95 942.799 1223.02 943.863 1223.02 945.094Z" fill="black"/>
<path d="M1076.36 754C1074.36 754 1072.76 753.467 1071.56 752.4C1070.36 751.333 1069.76 749.867 1069.76 748V710.3C1069.76 701.433 1072.53 694.5 1078.06 689.5C1083.59 684.5 1091.26 682 1101.06 682C1110.86 682 1118.53 684.5 1124.06 689.5C1129.59 694.5 1132.36 701.433 1132.36 710.3V748C1132.36 749.867 1131.76 751.333 1130.56 752.4C1129.36 753.467 1127.76 754 1125.76 754C1123.76 754 1122.13 753.467 1120.86 752.4C1119.66 751.267 1119.06 749.8 1119.06 748V710C1119.06 704.333 1117.53 700 1114.46 697C1111.39 694 1106.93 692.5 1101.06 692.5C1095.19 692.5 1090.73 694 1087.66 697C1084.59 700 1083.06 704.333 1083.06 710V748C1083.06 749.8 1082.43 751.267 1081.16 752.4C1079.96 753.467 1078.36 754 1076.36 754Z" fill="black"/>
<path d="M1005.21 754C997.415 754 990.682 752.5 985.015 749.5C979.415 746.433 975.148 742.2 972.215 736.8C969.282 731.333 967.815 725.067 967.815 718C967.815 710.933 969.282 704.7 972.215 699.3C975.148 693.833 979.415 689.6 985.015 686.6C990.682 683.533 997.415 682 1005.21 682C1013.01 682 1019.71 683.533 1025.31 686.6C1030.98 689.6 1035.28 693.833 1038.21 699.3C1041.15 704.7 1042.61 710.933 1042.61 718C1042.61 725.067 1041.15 731.333 1038.21 736.8C1035.28 742.2 1030.98 746.433 1025.31 749.5C1019.71 752.5 1013.01 754 1005.21 754ZM1005.21 743.5C1012.81 743.5 1018.71 741.233 1022.91 736.7C1027.11 732.1 1029.21 725.867 1029.21 718C1029.21 710.067 1027.01 703.833 1022.61 699.3C1018.28 694.767 1012.15 692.5 1004.21 692.5C996.948 692.5 991.282 694.833 987.215 699.5C983.215 704.1 981.215 710.267 981.215 718C981.215 725.867 983.315 732.1 987.515 736.7C991.715 741.233 997.615 743.5 1005.21 743.5Z" fill="black"/>
<path d="M927.946 754C925.946 754 924.346 753.467 923.146 752.4C921.946 751.333 921.346 749.867 921.346 748V688C921.346 686.133 921.946 684.667 923.146 683.6C924.346 682.533 925.946 682 927.946 682C929.88 682 931.48 682.533 932.746 683.6C934.013 684.667 934.646 686.133 934.646 688V748C934.646 749.867 934.013 751.333 932.746 752.4C931.48 753.467 929.88 754 927.946 754Z" fill="black"/>
<path d="M857.915 754C855.915 754 854.315 753.467 853.115 752.4C851.915 751.333 851.315 749.867 851.315 748V693.3H832.015C830.082 693.3 828.548 692.867 827.415 692C826.348 691.067 825.815 689.8 825.815 688.2C825.815 686.533 826.348 685.267 827.415 684.4C828.482 683.467 830.015 683 832.015 683H883.915C885.915 683 887.448 683.467 888.515 684.4C889.582 685.267 890.115 686.533 890.115 688.2C890.115 689.8 889.548 691.067 888.415 692C887.348 692.867 885.848 693.3 883.915 693.3H864.615V748C864.615 749.8 863.982 751.267 862.715 752.4C861.515 753.467 859.915 754 857.915 754Z" fill="black"/>
<path d="M747.337 753.9C745.337 753.9 743.737 753.367 742.537 752.3C741.337 751.233 740.737 749.767 740.737 747.9V712.9C740.737 703.233 743.503 695.667 749.037 690.2C754.57 684.733 762.27 682 772.137 682C778.603 682 784.203 683.233 788.937 685.7C793.67 688.167 797.27 691.733 799.737 696.4C802.27 701.067 803.537 706.567 803.537 712.9V747.9C803.537 749.767 802.937 751.233 801.737 752.3C800.537 753.367 798.937 753.9 796.937 753.9C794.937 753.9 793.303 753.367 792.037 752.3C790.837 751.167 790.237 749.7 790.237 747.9V731.6H754.037V747.9C754.037 749.7 753.403 751.167 752.137 752.3C750.937 753.367 749.337 753.9 747.337 753.9ZM790.237 721.3V712.6C790.237 705.933 788.703 700.933 785.637 697.6C782.637 694.2 778.137 692.5 772.137 692.5C760.07 692.5 754.037 699.2 754.037 712.6V721.3H790.237Z" fill="black"/>
<path d="M681.483 754C676.816 754 672.95 752.4 669.883 749.2C666.816 745.933 664.116 740.567 661.783 733.1L647.883 688.9C647.616 688.1 647.483 687.267 647.483 686.4C647.483 683.467 649.55 682 653.683 682C655.75 682 657.316 682.4 658.383 683.2C659.516 684 660.35 685.3 660.883 687.1L674.683 732.1C675.95 736.167 677.116 739.1 678.183 740.9C679.25 742.7 680.35 743.6 681.483 743.6C682.616 743.6 683.716 742.7 684.783 740.9C685.85 739.1 687.016 736.167 688.283 732.1L702.083 687.1C702.616 685.3 703.416 684 704.483 683.2C705.616 682.4 707.216 682 709.283 682C713.416 682 715.483 683.467 715.483 686.4C715.483 687.267 715.35 688.1 715.083 688.9L701.183 733.1C698.85 740.567 696.15 745.933 693.083 749.2C690.016 752.4 686.15 754 681.483 754Z" fill="black"/>
<path d="M583.438 754C575.638 754 568.904 752.5 563.238 749.5C557.638 746.433 553.371 742.2 550.438 736.8C547.504 731.333 546.038 725.067 546.038 718C546.038 710.933 547.504 704.7 550.438 699.3C553.371 693.833 557.638 689.6 563.238 686.6C568.904 683.533 575.638 682 583.438 682C591.238 682 597.938 683.533 603.538 686.6C609.204 689.6 613.504 693.833 616.438 699.3C619.371 704.7 620.838 710.933 620.838 718C620.838 725.067 619.371 731.333 616.438 736.8C613.504 742.2 609.204 746.433 603.538 749.5C597.938 752.5 591.238 754 583.438 754ZM583.438 743.5C591.038 743.5 596.938 741.233 601.138 736.7C605.338 732.1 607.438 725.867 607.438 718C607.438 710.067 605.238 703.833 600.838 699.3C596.504 694.767 590.371 692.5 582.438 692.5C575.171 692.5 569.504 694.833 565.438 699.5C561.438 704.1 559.438 710.267 559.438 718C559.438 725.867 561.538 732.1 565.738 736.7C569.938 741.233 575.838 743.5 583.438 743.5Z" fill="black"/>
<path d="M462.923 754C460.923 754 459.323 753.467 458.123 752.4C456.923 751.333 456.323 749.867 456.323 748V710.3C456.323 701.433 459.089 694.5 464.623 689.5C470.156 684.5 477.823 682 487.623 682C497.423 682 505.089 684.5 510.623 689.5C516.156 694.5 518.923 701.433 518.923 710.3V748C518.923 749.867 518.323 751.333 517.123 752.4C515.923 753.467 514.323 754 512.323 754C510.323 754 508.689 753.467 507.423 752.4C506.223 751.267 505.623 749.8 505.623 748V710C505.623 704.333 504.089 700 501.023 697C497.956 694 493.489 692.5 487.623 692.5C481.756 692.5 477.289 694 474.223 697C471.156 700 469.623 704.333 469.623 710V748C469.623 749.8 468.989 751.267 467.723 752.4C466.523 753.467 464.923 754 462.923 754Z" fill="black"/>
<path d="M370.169 754C368.169 754 366.569 753.467 365.369 752.4C364.169 751.333 363.569 749.867 363.569 748V710.3C363.569 701.433 366.336 694.5 371.869 689.5C377.402 684.5 385.069 682 394.869 682C404.669 682 412.336 684.5 417.869 689.5C423.402 694.5 426.169 701.433 426.169 710.3V748C426.169 749.867 425.569 751.333 424.369 752.4C423.169 753.467 421.569 754 419.569 754C417.569 754 415.936 753.467 414.669 752.4C413.469 751.267 412.869 749.8 412.869 748V710C412.869 704.333 411.336 700 408.269 697C405.202 694 400.736 692.5 394.869 692.5C389.002 692.5 384.536 694 381.469 697C378.402 700 376.869 704.333 376.869 710V748C376.869 749.8 376.236 751.267 374.969 752.4C373.769 753.467 372.169 754 370.169 754Z" fill="black"/>
<path d="M323.2 754C321.2 754 319.6 753.467 318.4 752.4C317.2 751.333 316.6 749.867 316.6 748V688C316.6 686.133 317.2 684.667 318.4 683.6C319.6 682.533 321.2 682 323.2 682C325.133 682 326.733 682.533 328 683.6C329.267 684.667 329.9 686.133 329.9 688V748C329.9 749.867 329.267 751.333 328 752.4C326.733 753.467 325.133 754 323.2 754Z" fill="black"/>
<defs>
<filter id="filter0_i_919_1443" x="32.6543" y="19.3179" width="1371.7" height="1316.36" filterUnits="userSpaceOnUse" color-interpolation-filters="sRGB">
<feFlood flood-opacity="0" result="BackgroundImageFix"/>
<feBlend mode="normal" in="SourceGraphic" in2="BackgroundImageFix" result="shape"/>
<feColorMatrix in="SourceAlpha" type="matrix" values="0 0 0 0 0 0 0 0 0 0 0 0 0 0 0 0 0 0 127 0" result="hardAlpha"/>
<feOffset dx="-4" dy="4"/>
<feGaussianBlur stdDeviation="10"/>
<feComposite in2="hardAlpha" operator="arithmetic" k2="-1" k3="1"/>
<feColorMatrix type="matrix" values="0 0 0 0 0.778044 0 0 0 0 0.778044 0 0 0 0 0.778044 0 0 0 1 0"/>
<feBlend mode="normal" in2="shape" result="effect1_innerShadow_919_1443"/>
</filter>
</defs>
</svg>
