<svg width="22" height="26" viewBox="0 0 22 26" fill="none" xmlns="http://www.w3.org/2000/svg">
<path d="M3.914 11.2281C3.914 12.3388 4.06333 13.3374 4.362 14.2241C4.66067 15.1014 5.08533 15.8481 5.636 16.4641C6.196 17.0708 6.868 17.5374 7.652 17.8641C8.44533 18.1908 9.33667 18.3541 10.326 18.3541C11.3153 18.3541 12.202 18.1908 12.986 17.8641C13.7793 17.5374 14.4513 17.0708 15.002 16.4641C15.5527 15.8481 15.9773 15.1014 16.276 14.2241C16.5747 13.3374 16.724 12.3388 16.724 11.2281C16.724 10.1174 16.5747 9.12343 16.276 8.2461C15.9773 7.35943 15.5527 6.6081 15.002 5.9921C14.4513 5.3761 13.7793 4.90476 12.986 4.5781C12.202 4.25143 11.3153 4.0881 10.326 4.0881C9.33667 4.0881 8.44533 4.25143 7.652 4.5781C6.868 4.90476 6.196 5.3761 5.636 5.9921C5.08533 6.6081 4.66067 7.35943 4.362 8.2461C4.06333 9.12343 3.914 10.1174 3.914 11.2281ZM21.624 25.3121H18.516C18.068 25.3121 17.662 25.2514 17.298 25.1301C16.9433 25.0088 16.6167 24.7848 16.318 24.4581L13.35 21.1821C12.874 21.3128 12.384 21.4108 11.88 21.4761C11.3853 21.5414 10.8673 21.5741 10.326 21.5741C8.79533 21.5741 7.4 21.3174 6.14 20.8041C4.88 20.2814 3.79733 19.5581 2.892 18.6341C1.996 17.7101 1.30067 16.6181 0.806 15.3581C0.311333 14.0888 0.0640001 12.7121 0.0640001 11.2281C0.0640001 9.7441 0.311333 8.3721 0.806 7.1121C1.30067 5.84276 1.996 4.7461 2.892 3.8221C3.79733 2.8981 4.88 2.17943 6.14 1.6661C7.4 1.14343 8.79533 0.882097 10.326 0.882097C11.3527 0.882097 12.3187 1.00343 13.224 1.2461C14.1293 1.47943 14.96 1.81543 15.716 2.2541C16.472 2.68343 17.1487 3.21076 17.746 3.8361C18.3527 4.4521 18.866 5.14276 19.286 5.9081C19.706 6.67343 20.0233 7.5041 20.238 8.4001C20.462 9.2961 20.574 10.2388 20.574 11.2281C20.574 12.1334 20.4807 13.0014 20.294 13.8321C20.1073 14.6534 19.8367 15.4234 19.482 16.1421C19.1367 16.8608 18.712 17.5234 18.208 18.1301C17.704 18.7274 17.13 19.2548 16.486 19.7121L21.624 25.3121Z" fill="#242528"/>
</svg>
