<svg width="46" height="40" viewBox="0 0 46 40" fill="none" xmlns="http://www.w3.org/2000/svg">
<path d="M43.4418 9.69398C42.9511 7.84633 41.5053 6.39117 39.6696 5.89734C36.3423 5 23 5 23 5C23 5 9.6578 5 6.33038 5.89734C4.49467 6.39125 3.04889 7.84633 2.55819 9.69398C1.66663 13.043 1.66663 20.0303 1.66663 20.0303C1.66663 20.0303 1.66663 27.0177 2.55819 30.3666C3.04889 32.2143 4.49467 33.6088 6.33038 34.1027C9.6578 35 23 35 23 35C23 35 36.3422 35 39.6696 34.1027C41.5053 33.6088 42.9511 32.2143 43.4418 30.3666C44.3333 27.0177 44.3333 20.0303 44.3333 20.0303C44.3333 20.0303 44.3333 13.043 43.4418 9.69398ZM18.6363 26.3743V13.6863L29.7878 20.0305L18.6363 26.3743Z" fill="black"/>
</svg>
