<svg width="257" height="156" viewBox="0 0 257 156" fill="none" xmlns="http://www.w3.org/2000/svg">
<path fill-rule="evenodd" clip-rule="evenodd" d="M0 71.2069V100.707H10.8953H21.7907V80.7069V60.7069H55.0501H88.3096V80.7069V100.707H172.605H256.901V91.2069V81.7069H183.5H110.1V61.7069V41.7069H55.0501H0V71.2069Z" fill="white"/>
<path d="M0 0.207087V9.48983V19.7069C0 19.7069 35.8422 19.7069 75.2145 19.7069H146.8V39.7069V59.7069H201.868H256.901V40.7069H201.85H168.638L168.328 20.4569L168.018 0.206926L85.4424 0.0219246C40.026 -0.0800754 0 0.207087 0 0.207087Z" fill="white"/>
<path fill-rule="evenodd" clip-rule="evenodd" d="M30.8814 126C30.8814 126 25.1469 126.5 24 130.5C24 134 24.0046 137.711 24.0046 142.34V155.273H30.8859C30.8859 155.273 30.8859 155.162 30.8859 150.273V145.273H35.783H41.2032L49.4118 155.241H58.4063L50.3782 145.273C50.3782 145.273 56.686 144.5 57.2595 139.5L57.2641 135.773L57.2595 131C56.1126 126.5 50.3782 126 50.3782 126H40.6299L30.8814 126ZM50.0112 135.773V139.273H40.5999H30.8859V135.773V132.273H40.4485H50.0112V135.773Z" fill="white"/>
<path fill-rule="evenodd" clip-rule="evenodd" d="M30.8814 126C30.8814 126 25.1469 126.5 24 130.5C24 134 24.0046 137.711 24.0046 142.34V155.273H30.8859C30.8859 155.273 30.8859 155.162 30.8859 150.273V145.273H35.783H41.2032L49.4118 155.241H58.4063L50.3782 145.273C50.3782 145.273 56.686 144.5 57.2595 139.5L57.2641 135.773L57.2595 131C56.1126 126.5 50.3782 126 50.3782 126H40.6299L30.8814 126ZM50.0112 135.773V139.273H40.5999H30.8859V135.773V132.273H40.4485H50.0112V135.773Z" fill="white"/>
<path d="M98.2759 137.552V154.976L104.517 155V146.276V137.552H114V133H101.5H89V137.552H98.2759Z" fill="white"/>
<path d="M98.2759 137.552V154.976L104.517 155V146.276V137.552H114V133H101.5H89V137.552H98.2759Z" fill="white"/>
<path fill-rule="evenodd" clip-rule="evenodd" d="M154.675 133H146.9C142.58 134.517 143.012 138.31 143.012 138.31V144.759V150.828C143.012 152.724 146.036 155 147.763 155H154.675H162.882C165.906 154.241 167 152.345 167 150.448V145.305V137.759C167 133.605 162.45 133 162.45 133H154.675ZM162.021 144.207V150.655H155.11H148.199V144.207V137.759H155.11H162.021V144.207Z" fill="white"/>
<path fill-rule="evenodd" clip-rule="evenodd" d="M154.675 133H146.9C142.58 134.517 143.012 138.31 143.012 138.31V144.759V150.828C143.012 152.724 146.036 155 147.763 155H154.675H162.882C165.906 154.241 167 152.345 167 150.448V145.305V137.759C167 133.605 162.45 133 162.45 133H154.675ZM162.021 144.207V150.655H155.11H148.199V144.207V137.759H155.11H162.021V144.207Z" fill="white"/>
<path fill-rule="evenodd" clip-rule="evenodd" d="M200.79 128.223C199.484 129.849 199.573 131.227 199.573 131.227V137.727C199.573 137.727 199.573 141.727 205.308 142.227H215.056H225.383V145.982V149.237H207.602C207.602 149.237 205.886 149.727 205.886 147.727V146.224H199C199 150.724 200.032 151.627 201.294 152.727C203.293 154.47 205.121 154.727 215.507 154.727C232.264 154.727 232.441 154.227 232.441 146.224C232.441 137 232.441 137 217.177 137C205.897 137 205.886 136.997 205.886 134.5C205.886 132.029 205.873 131.727 215.507 131.727C215.507 131.727 225.952 131.539 225.952 132.227C225.952 132.777 225.952 133.727 225.952 133.727C227.47 133.727 232.264 133.727 232.264 133.727C232.264 133.727 232.264 131.436 232.264 130.227C232.264 126.307 231.113 126 216.044 126C203.426 126 202.462 126.14 200.79 128.223Z" fill="white"/>
<path fill-rule="evenodd" clip-rule="evenodd" d="M200.79 128.223C199.484 129.849 199.573 131.227 199.573 131.227V137.727C199.573 137.727 199.573 141.727 205.308 142.227H215.056H225.383V145.982V149.237H207.602C207.602 149.237 205.886 149.727 205.886 147.727V146.224H199C199 150.724 200.032 151.627 201.294 152.727C203.293 154.47 205.121 154.727 215.507 154.727C232.264 154.727 232.441 154.227 232.441 146.224C232.441 137 232.441 137 217.177 137C205.897 137 205.886 136.997 205.886 134.5C205.886 132.029 205.873 131.727 215.507 131.727C215.507 131.727 225.952 131.539 225.952 132.227C225.952 132.777 225.952 133.727 225.952 133.727C227.47 133.727 232.264 133.727 232.264 133.727C232.264 133.727 232.264 131.436 232.264 130.227C232.264 126.307 231.113 126 216.044 126C203.426 126 202.462 126.14 200.79 128.223Z" fill="white"/>
</svg>
