<svg width="171" height="24" viewBox="0 0 171 24" fill="none" xmlns="http://www.w3.org/2000/svg">
<path fill-rule="evenodd" clip-rule="evenodd" d="M5.6418 0C5.6418 0 0.940282 0.409933 0 3.6894C0 6.55893 0.00377672 9.60106 0.00377672 13.3967V24H5.64547C5.64547 24 5.64547 23.909 5.64547 19.9007V15.8013H9.66047H14.1042L20.8342 23.9738H28.2085L21.6265 15.8013C21.6265 15.8013 26.798 15.1675 27.2682 11.0682L27.272 8.01262L27.2682 4.09933C26.3279 0.409933 21.6265 8.90372e-05 21.6265 8.90372e-05H13.6343L5.6418 0ZM21.3256 8.01262V10.8821H13.6097H5.64547V8.01262V5.14309H13.4855H21.3256V8.01262Z" fill="#242528"/>
<path fill-rule="evenodd" clip-rule="evenodd" d="M5.6418 0C5.6418 0 0.940282 0.409933 0 3.6894C0 6.55893 0.00377672 9.60106 0.00377672 13.3967V24H5.64547C5.64547 24 5.64547 23.909 5.64547 19.9007V15.8013H9.66047H14.1042L20.8342 23.9738H28.2085L21.6265 15.8013C21.6265 15.8013 26.798 15.1675 27.2682 11.0682L27.272 8.01262L27.2682 4.09933C26.3279 0.409933 21.6265 8.90372e-05 21.6265 8.90372e-05H13.6343L5.6418 0ZM21.3256 8.01262V10.8821H13.6097H5.64547V8.01262V5.14309H13.4855H21.3256V8.01262Z" fill="#242528"/>
<path d="M60.8959 9.47058V23.7559L66.013 23.7758V16.6232V9.47058H73.7876V5.73877H63.5393H53.291V9.47058H60.8959Z" fill="#242528"/>
<path d="M60.8959 9.47058V23.7559L66.013 23.7758V16.6232V9.47058H73.7876V5.73877H63.5393H53.291V9.47058H60.8959Z" fill="#242528"/>
<path fill-rule="evenodd" clip-rule="evenodd" d="M107.135 5.73877H100.761C97.2194 6.98271 97.5736 10.0927 97.5736 10.0927V15.3793V20.355C97.5736 21.9099 100.053 23.7758 101.469 23.7758H107.135H113.864C116.343 23.1539 117.24 21.599 117.24 20.0441V15.8274V9.64044C117.24 6.2348 113.51 5.73877 113.51 5.73877H107.135ZM113.159 14.9271V20.2138H107.492H101.826V14.9271V9.64044H107.492H113.159V14.9271Z" fill="#242528"/>
<path fill-rule="evenodd" clip-rule="evenodd" d="M107.135 5.73877H100.761C97.2194 6.98271 97.5736 10.0927 97.5736 10.0927V15.3793V20.355C97.5736 21.9099 100.053 23.7758 101.469 23.7758H107.135H113.864C116.343 23.1539 117.24 21.599 117.24 20.0441V15.8274V9.64044C117.24 6.2348 113.51 5.73877 113.51 5.73877H107.135ZM113.159 14.9271V20.2138H107.492H101.826V14.9271V9.64044H107.492H113.159V14.9271Z" fill="#242528"/>
<path fill-rule="evenodd" clip-rule="evenodd" d="M144.944 1.82256C143.872 3.15579 143.946 4.28551 143.946 4.28551V9.61464C143.946 9.61464 143.946 12.8941 148.647 13.304H156.64H165.106V16.3826V19.0509H150.528C150.528 19.0509 149.121 19.453 149.121 17.8133V16.581H143.476C143.476 20.2704 144.322 21.0108 145.356 21.9126C146.995 23.3417 148.494 23.5524 157.009 23.5524C170.748 23.5524 170.893 23.1424 170.893 16.581C170.893 9.01853 170.893 9.01853 158.378 9.01853C149.131 9.01853 149.121 9.01607 149.121 6.96886C149.121 4.94297 149.111 4.69545 157.009 4.69545C157.009 4.69545 165.572 4.54134 165.572 5.10538C165.572 5.55631 165.572 6.33518 165.572 6.33518C166.817 6.33518 170.748 6.33518 170.748 6.33518C170.748 6.33518 170.748 4.45648 170.748 3.46565C170.748 0.251931 169.804 0 157.449 0C147.104 0 146.315 0.114781 144.944 1.82256Z" fill="#242528"/>
<path fill-rule="evenodd" clip-rule="evenodd" d="M144.944 1.82256C143.872 3.15579 143.946 4.28551 143.946 4.28551V9.61464C143.946 9.61464 143.946 12.8941 148.647 13.304H156.64H165.106V16.3826V19.0509H150.528C150.528 19.0509 149.121 19.453 149.121 17.8133V16.581H143.476C143.476 20.2704 144.322 21.0108 145.356 21.9126C146.995 23.3417 148.494 23.5524 157.009 23.5524C170.748 23.5524 170.893 23.1424 170.893 16.581C170.893 9.01853 170.893 9.01853 158.378 9.01853C149.131 9.01853 149.121 9.01607 149.121 6.96886C149.121 4.94297 149.111 4.69545 157.009 4.69545C157.009 4.69545 165.572 4.54134 165.572 5.10538C165.572 5.55631 165.572 6.33518 165.572 6.33518C166.817 6.33518 170.748 6.33518 170.748 6.33518C170.748 6.33518 170.748 4.45648 170.748 3.46565C170.748 0.251931 169.804 0 157.449 0C147.104 0 146.315 0.114781 144.944 1.82256Z" fill="#242528"/>
</svg>
