<svg width="90" height="56" viewBox="0 0 90 56" fill="none" xmlns="http://www.w3.org/2000/svg">
<path fill-rule="evenodd" clip-rule="evenodd" d="M0 25.7475V36.0823H3.81696H7.63393V29.0757V22.069H19.2857H30.9375V29.0757V36.0823H60.4687H90V32.7542V29.426H64.2857H38.5714V22.4194V15.4127H19.2857H0V25.7475Z" fill="#242528"/>
<path d="M0 0.874032V4.12607V7.70544C0 7.70544 12.5566 7.70544 26.3499 7.70544H51.4286V14.7121V21.7187H70.7203H90V15.0624H70.7143H59.079L58.9705 7.96819L58.8616 0.873976L29.933 0.809164C14.0223 0.77343 0 0.874032 0 0.874032Z" fill="#242528"/>
<path fill-rule="evenodd" clip-rule="evenodd" d="M10.8187 44.9433C10.8187 44.9433 8.80974 45.1184 8.40796 46.5198C8.40796 47.7459 8.40957 49.0459 8.40957 50.6677V55.1986H10.8203C10.8203 55.1986 10.8203 55.1597 10.8203 53.4469V51.6953H12.5359H14.4347L17.3105 55.1874H20.4615L17.649 51.6953C17.649 51.6953 19.8589 51.4244 20.0597 49.6728L20.0614 48.3671L20.0597 46.6949C19.658 45.1184 17.649 44.9433 17.649 44.9433H14.2339L10.8187 44.9433ZM17.5205 48.3671V49.5933H14.2234H10.8203V48.3671V47.1409H14.1704H17.5205V48.3671Z" fill="#242528"/>
<path fill-rule="evenodd" clip-rule="evenodd" d="M10.8187 44.9433C10.8187 44.9433 8.80974 45.1184 8.40796 46.5198C8.40796 47.7459 8.40957 49.0459 8.40957 50.6677V55.1986H10.8203C10.8203 55.1986 10.8203 55.1597 10.8203 53.4469V51.6953H12.5359H14.4347L17.3105 55.1874H20.4615L17.649 51.6953C17.649 51.6953 19.8589 51.4244 20.0597 49.6728L20.0614 48.3671L20.0597 46.6949C19.658 45.1184 17.649 44.9433 17.649 44.9433H14.2339L10.8187 44.9433ZM17.5205 48.3671V49.5933H14.2234H10.8203V48.3671V47.1409H14.1704H17.5205V48.3671Z" fill="#242528"/>
<path d="M34.4291 48.9902V55.0944L36.6156 55.1029V52.0466V48.9902H39.9377V47.3956H35.5586H31.1794V48.9902H34.4291Z" fill="#242528"/>
<path d="M34.4291 48.9902V55.0944L36.6156 55.1029V52.0466V48.9902H39.9377V47.3956H35.5586H31.1794V48.9902H34.4291Z" fill="#242528"/>
<path fill-rule="evenodd" clip-rule="evenodd" d="M54.1873 47.3956H51.4634C49.9502 47.9271 50.1015 49.256 50.1015 49.256V51.515V53.6412C50.1015 54.3056 51.1608 55.1029 51.7661 55.1029H54.1873H57.0625C58.1218 54.8371 58.5052 54.1727 58.5052 53.5083V51.7065V49.0628C58.5052 47.6076 56.9112 47.3956 56.9112 47.3956H54.1873ZM56.7611 51.3218V53.5808H54.3399H51.9186V51.3218V49.0628H54.3399H56.7611V51.3218Z" fill="#242528"/>
<path fill-rule="evenodd" clip-rule="evenodd" d="M54.1873 47.3956H51.4634C49.9502 47.9271 50.1015 49.256 50.1015 49.256V51.515V53.6412C50.1015 54.3056 51.1608 55.1029 51.7661 55.1029H54.1873H57.0625C58.1218 54.8371 58.5052 54.1727 58.5052 53.5083V51.7065V49.0628C58.5052 47.6076 56.9112 47.3956 56.9112 47.3956H54.1873ZM56.7611 51.3218V53.5808H54.3399H51.9186V51.3218V49.0628H54.3399H56.7611V51.3218Z" fill="#242528"/>
<path fill-rule="evenodd" clip-rule="evenodd" d="M70.3429 45.7221C69.8851 46.2918 69.9166 46.7745 69.9166 46.7745V49.0517C69.9166 49.0517 69.9166 50.453 71.9255 50.6281H75.3407H78.9584V51.9436V53.0838H72.7291C72.7291 53.0838 72.128 53.2556 72.128 52.555V52.0284H69.7157C69.7157 53.6049 70.0773 53.9213 70.5193 54.3066C71.2196 54.9173 71.86 55.0073 75.4986 55.0073C81.3691 55.0073 81.431 54.8321 81.431 52.0284C81.431 48.7969 81.431 48.7969 76.0836 48.7969C72.132 48.7969 72.128 48.7959 72.128 47.9211C72.128 47.0554 72.1236 46.9497 75.4986 46.9497C75.4986 46.9497 79.1577 46.8838 79.1577 47.1248C79.1577 47.3175 79.1577 47.6503 79.1577 47.6503C79.6896 47.6503 81.3691 47.6503 81.3691 47.6503C81.3691 47.6503 81.3691 46.8476 81.3691 46.4242C81.3691 45.0509 80.9657 44.9433 75.6866 44.9433C71.2662 44.9433 70.9287 44.9923 70.3429 45.7221Z" fill="#242528"/>
<path fill-rule="evenodd" clip-rule="evenodd" d="M70.3429 45.7221C69.8851 46.2918 69.9166 46.7745 69.9166 46.7745V49.0517C69.9166 49.0517 69.9166 50.453 71.9255 50.6281H75.3407H78.9584V51.9436V53.0838H72.7291C72.7291 53.0838 72.128 53.2556 72.128 52.555V52.0284H69.7157C69.7157 53.6049 70.0773 53.9213 70.5193 54.3066C71.2196 54.9173 71.86 55.0073 75.4986 55.0073C81.3691 55.0073 81.431 54.8321 81.431 52.0284C81.431 48.7969 81.431 48.7969 76.0836 48.7969C72.132 48.7969 72.128 48.7959 72.128 47.9211C72.128 47.0554 72.1236 46.9497 75.4986 46.9497C75.4986 46.9497 79.1577 46.8838 79.1577 47.1248C79.1577 47.3175 79.1577 47.6503 79.1577 47.6503C79.6896 47.6503 81.3691 47.6503 81.3691 47.6503C81.3691 47.6503 81.3691 46.8476 81.3691 46.4242C81.3691 45.0509 80.9657 44.9433 75.6866 44.9433C71.2662 44.9433 70.9287 44.9923 70.3429 45.7221Z" fill="#242528"/>
</svg>
