<svg width="467" height="120" viewBox="0 0 467 120" fill="none" xmlns="http://www.w3.org/2000/svg">
<path d="M396.845 120V23.2295H420.131L422.737 32.6912C423.87 30.8026 425.249 29.1407 426.873 27.7054C428.497 26.2323 430.272 25.0236 432.199 24.0793C434.125 23.0973 436.165 22.3607 438.318 21.8697C440.509 21.3787 442.699 21.1331 444.89 21.1331C447.61 21.1331 450.272 21.6053 452.879 22.5496C455.485 23.4939 457.789 24.9481 459.791 26.9122C461.831 28.8385 463.455 31.2748 464.663 34.221C465.91 37.1671 466.533 40.6232 466.533 44.5892V77.3371C466.533 81.1143 465.929 84.4004 464.72 87.1955C463.511 89.9528 461.906 92.238 459.904 94.051C457.94 95.864 455.674 97.2049 453.105 98.0737C450.575 98.9424 447.968 99.3768 445.287 99.3768C443.323 99.3768 441.377 99.1879 439.451 98.8102C437.562 98.4703 435.73 97.9415 433.955 97.2238C432.218 96.5439 430.575 95.6941 429.026 94.6742C427.515 93.6544 426.174 92.4835 425.003 91.1615V120H396.845ZM425.003 83.5127H438.374V36.8272H425.003V83.5127Z" fill="#F2F2F2"/>
<path d="M380.301 23.2295V96.8839H357.015L354.408 87.4221C353.426 89.3862 352.142 91.1237 350.556 92.6346C348.969 94.1077 347.194 95.3541 345.23 96.3739C343.266 97.356 341.17 98.0925 338.941 98.5836C336.713 99.1124 334.446 99.3768 332.142 99.3768C329.46 99.3768 326.816 98.9424 324.21 98.0737C321.642 97.2049 319.338 95.9018 317.298 94.1643C315.296 92.389 313.672 90.1605 312.425 87.4788C311.217 84.797 310.612 81.6619 310.612 78.0737V23.2295H338.771V83.4561H352.142V23.2295H380.301Z" fill="#F2F2F2"/>
<path d="M219.394 96.8839V0H247.553V46.5722L261.264 23.2295H291.292L273.332 50.4249L291.689 96.8839H263.02L253.332 69.4051L247.553 77.1671V96.8839H219.394Z" fill="#F2F2F2"/>
<path d="M204.154 71.3314V76.8272C204.154 78.3003 204.097 79.8867 203.984 81.5864C203.87 83.2483 203.493 84.9103 202.85 86.5722C202.208 88.1964 201.17 89.7639 199.734 91.2748C198.337 92.7479 196.335 94.0699 193.729 95.2408C191.16 96.3739 187.874 97.2805 183.87 97.9603C179.866 98.6402 174.956 98.9802 169.139 98.9802C163.474 98.9802 158.677 98.6402 154.748 97.9603C150.858 97.2805 147.628 96.3739 145.06 95.2408C142.492 94.1077 140.49 92.7856 139.054 91.2748C137.619 89.7639 136.561 88.1964 135.882 86.5722C135.202 84.9481 134.786 83.305 134.635 81.6431C134.522 79.9433 134.465 78.3381 134.465 76.8272V42.8329C134.465 41.322 134.522 39.7356 134.635 38.0737C134.786 36.4117 135.202 34.7687 135.882 33.1445C136.561 31.5203 137.619 29.9717 139.054 28.4986C140.49 26.9877 142.492 25.6657 145.06 24.5326C147.628 23.3994 150.858 22.4929 154.748 21.813C158.677 21.1331 163.474 20.7932 169.139 20.7932C174.654 20.7932 179.338 21.0954 183.19 21.6997C187.081 22.3041 190.31 23.135 192.879 24.1926C195.485 25.2502 197.544 26.4589 199.054 27.8187C200.565 29.1785 201.698 30.6327 202.454 32.1813C203.209 33.7299 203.681 35.2975 203.87 36.8839C204.059 38.4703 204.154 40 204.154 41.4731V48.4419H175.995V36.8272H162.624V83.4561H175.995V71.3314H204.154Z" fill="#F2F2F2"/>
<path d="M119.508 96.8839H91.349V23.2295H119.508V96.8839ZM119.508 0V13.4278H91.349V0H119.508Z" fill="#F2F2F2"/>
<path d="M0.130859 6.51558H38.0912C43.3792 6.51558 47.8174 6.85552 51.4056 7.53541C55.0317 8.2153 58.0157 9.12181 60.3575 10.255C62.7371 11.3881 64.5501 12.7101 65.7966 14.221C67.0808 15.6941 68.0251 17.2616 68.6294 18.9235C69.2338 20.5477 69.5737 22.2096 69.6493 23.9093C69.7626 25.5713 69.8192 27.1577 69.8192 28.6686V50.255C69.8192 51.7658 69.7626 53.3711 69.6493 55.0708C69.5737 56.7328 69.2338 58.3758 68.6294 60C68.0251 61.6242 67.0808 63.1917 65.7966 64.7026C64.5501 66.2134 62.7371 67.5354 60.3575 68.6686C58.0157 69.8017 55.0317 70.7082 51.4056 71.3881C47.8174 72.068 43.3792 72.4079 38.0912 72.4079H28.2895V96.8839H0.130859V6.51558ZM28.2895 60.0567H41.6606V19.9433H28.2895V60.0567Z" fill="#F2F2F2"/>
</svg>
