<svg width="435" height="120" viewBox="0 0 435 120" fill="none" xmlns="http://www.w3.org/2000/svg">
<path d="M364.759 119.992V23.2216H388.045L390.652 32.6834C391.785 30.7948 393.163 29.1329 394.788 27.6976C396.412 26.2245 398.187 25.0158 400.113 24.0715C402.04 23.0894 404.079 22.3529 406.232 21.8619C408.423 21.3708 410.614 21.1253 412.805 21.1253C415.524 21.1253 418.187 21.5975 420.793 22.5418C423.399 23.486 425.703 24.9403 427.705 26.9044C429.745 28.8307 431.369 31.267 432.578 34.2132C433.824 37.1593 434.448 40.6154 434.448 44.5814V77.3293C434.448 81.1064 433.843 84.3926 432.635 87.1877C431.426 89.945 429.821 92.2301 427.819 94.0432C425.855 95.8562 423.588 97.1971 421.02 98.0658C418.489 98.9346 415.883 99.369 413.201 99.369C411.237 99.369 409.292 99.1801 407.365 98.8024C405.477 98.4624 403.645 97.9336 401.87 97.216C400.132 96.5361 398.489 95.6862 396.941 94.6664C395.43 93.6466 394.089 92.4757 392.918 91.1537V119.992H364.759ZM392.918 83.5049H406.289V36.8194H392.918V83.5049Z" fill="#F2F2F2"/>
<path d="M348.215 23.2216V96.876H324.929L322.323 87.4143C321.341 89.3784 320.057 91.1159 318.47 92.6267C316.884 94.0998 315.109 95.3463 313.144 96.3661C311.18 97.3482 309.084 98.0847 306.856 98.5758C304.627 99.1046 302.361 99.369 300.057 99.369C297.375 99.369 294.731 98.9346 292.125 98.0658C289.556 97.1971 287.252 95.894 285.212 94.1565C283.211 92.3812 281.586 90.1527 280.34 87.4709C279.131 84.7892 278.527 81.6541 278.527 78.0658V23.2216H306.686V83.4483H320.057V23.2216H348.215Z" fill="#F2F2F2"/>
<path d="M263.229 71.3236C263.229 74.0054 263.135 76.555 262.946 78.9724C262.757 81.352 262.285 83.5805 261.53 85.6579C260.812 87.6976 259.698 89.5295 258.187 91.1537C256.714 92.7778 254.674 94.1754 252.068 95.3463C249.5 96.4794 246.27 97.3482 242.38 97.9525C238.527 98.5946 233.824 98.9157 228.272 98.9157C222.606 98.9157 217.809 98.5758 213.881 97.8959C209.991 97.216 206.761 96.3095 204.193 95.1763C201.624 94.0432 199.622 92.7401 198.187 91.267C196.752 89.7561 195.694 88.1886 195.014 86.5644C194.334 84.9025 193.919 83.2405 193.768 81.5786C193.654 79.9166 193.598 78.3302 193.598 76.8194V42.8251C193.598 41.3142 193.654 39.7278 193.768 38.0658C193.919 36.4039 194.334 34.7608 195.014 33.1367C195.694 31.5125 196.752 29.9639 198.187 28.4908C199.622 26.9799 201.624 25.6579 204.193 24.5248C206.761 23.3916 209.991 22.4851 213.881 21.8052C217.809 21.1253 222.606 20.7854 228.272 20.7854C233.787 20.7854 238.489 21.1253 242.38 21.8052C246.27 22.4851 249.5 23.3916 252.068 24.5248C254.674 25.6579 256.714 26.9799 258.187 28.4908C259.698 29.9639 260.831 31.5125 261.586 33.1367C262.342 34.7608 262.814 36.4228 263.003 38.1225C263.192 39.7844 263.286 41.352 263.286 42.8251V64.0715H221.756V83.4483H235.127V71.3803L263.229 71.3236ZM221.756 53.9865H235.127V36.8194H221.756V53.9865Z" fill="#F2F2F2"/>
<path d="M108.555 96.876V23.2216H131.841L134.448 32.6834C135.43 30.7193 136.714 29.0007 138.3 27.5276C139.887 26.0167 141.662 24.7703 143.626 23.7882C145.59 22.7684 147.686 22.013 149.915 21.5219C152.144 20.9931 154.41 20.7287 156.714 20.7287C159.396 20.7287 162.021 21.1631 164.589 22.0318C167.195 22.9006 169.5 24.2226 171.501 25.9979C173.541 27.7353 175.165 29.945 176.374 32.6267C177.62 35.3085 178.244 38.4436 178.244 42.0318V96.876H150.085V36.8194H136.714V96.876H108.555Z" fill="#F2F2F2"/>
<path d="M92.5212 96.876H64.3626V23.2216H92.5212V96.876ZM92.5212 -0.0078125V13.4199H64.3626V-0.0078125H92.5212Z" fill="#F2F2F2"/>
<path d="M0 96.876V6.50777H28.1586V83.4483H45.6091V96.876H0Z" fill="#F2F2F2"/>
</svg>
